<?xml version="1.0" encoding="UTF-8" standalone="no"?>
<svg width="60px" height="60px" viewBox="0 0 60 60" version="1.1" xmlns="http://www.w3.org/2000/svg" xmlns:xlink="http://www.w3.org/1999/xlink" xmlns:sketch="http://www.bohemiancoding.com/sketch/ns">
    <!-- Generator: Sketch 3.0.1 (7597) - http://www.bohemiancoding.com/sketch -->
    <title>53</title>
    <description>Created with Sketch.</description>
    <defs></defs>
    <g id="Page-1" stroke="none" stroke-width="1" fill="none" fill-rule="evenodd" sketch:type="MSPage">
        <g id="Monocolor-Original" sketch:type="MSArtboardGroup" transform="translate(-1895.000000, -198.000000)" fill="#FFFFFF">
            <g id="53" sketch:type="MSLayerGroup" transform="translate(1895.000000, 198.000000)">
                <path d="M30.0006,60 C13.4571,60 0,46.54095 0,29.99895 C0,13.4571 13.45695,0 30.0006,0 C46.54275,0 60,13.4571 60,29.99895 C60,46.54095 46.54275,60 30.0006,60 L30.0006,60 Z M30.0008972,2.14285714 C14.6386738,2.14285714 2.14285714,14.6376578 2.14285714,29.9994018 C2.14285714,45.3598 14.6386738,57.8571429 30.0008972,57.8571429 C45.3601298,57.8571429 57.8571429,45.3599496 57.8571429,29.9994018 C57.8571429,14.6376578 45.3602794,2.14285714 30.0008972,2.14285714 L30.0008972,2.14285714 Z" id="Shape" sketch:type="MSShapeGroup"></path>
                <path d="M13.868493,25 C13.3101665,25 12.8571429,24.5146924 12.8571429,23.9128034 L12.8571429,18.2270483 C12.8571429,17.6281648 13.3101665,17.1428571 13.868493,17.1428571 L26.8462346,17.1428571 C27.4045611,17.1428571 27.8571429,17.6281648 27.8571429,18.2270483 C27.8571429,18.8279882 27.4045611,19.313454 26.8462346,19.313454 L14.8780758,19.313454 L14.8780758,23.9129616 C14.8780758,24.5146924 14.4234322,25 13.868493,25 L13.868493,25 Z" id="Shape" sketch:type="MSShapeGroup"></path>
                <path d="M19.8430069,44.2857143 C17.3185329,44.2857143 14.9468051,43.3170497 13.1615376,41.5672039 C12.755678,41.1648584 12.755678,40.519826 13.1615376,40.1194148 C13.5683055,39.7251044 14.2244023,39.7251044 14.6317757,40.1194148 C17.5036752,42.9495225 22.1785541,42.9495225 25.0559034,40.1194148 C27.9288625,37.2982349 27.9258348,32.7019139 25.0522701,29.8731453 C22.1785541,27.0525606 17.5036752,27.0525606 14.6317757,29.8731453 C14.2242509,30.2731101 13.5681541,30.2731101 13.1615376,29.8731453 C12.755678,29.4755613 12.755678,28.828297 13.1615376,28.4320521 C14.9468051,26.6777425 17.3185329,25.7142857 19.8430069,25.7142857 C22.3655129,25.7142857 24.738906,26.6777425 26.5240221,28.4320521 C30.2062783,32.0550959 30.2062783,37.9450529 26.5240221,41.5672039 C24.7390573,43.3169009 22.3655129,44.2857143 19.8430069,44.2857143 L19.8430069,44.2857143 Z" id="Shape" sketch:type="MSShapeGroup"></path>
                <path d="M38.4129078,44.2857143 C35.889267,44.2857143 33.5177896,43.3219038 31.7298322,41.5808268 C31.3281512,41.1804976 31.3281512,40.5386975 31.7298322,40.1402929 C32.1378723,39.7479584 32.7963384,39.7479584 33.2028644,40.1402929 C34.5945914,41.5051729 36.4458367,42.2540137 38.4129078,42.2540137 C40.3824014,42.2540137 42.2333438,41.5050248 43.6279476,40.1402929 C46.4996715,37.3332504 46.4996715,32.7599623 43.6279476,29.9453692 C43.2695688,29.5970058 42.8660709,29.2812135 42.4441014,29.0067274 C41.9627807,28.6998182 41.8286347,28.0666051 42.1449225,27.6012815 C42.4598477,27.1319606 43.1024162,27.0016759 43.5801032,27.3100657 C44.1250146,27.6594655 44.6323772,28.063496 45.0949235,28.5114976 C48.7778826,32.1163857 48.7778826,37.9768271 45.0949235,41.5808268 C43.3092372,43.3217558 40.9353373,44.2857143 38.4129078,44.2857143 L38.4129078,44.2857143 Z" id="Shape" sketch:type="MSShapeGroup"></path>
                <path d="M35.6249613,30.7142857 C35.3592308,30.7142857 35.0890765,30.6151082 34.8846684,30.4201375 C34.4753946,30.0268119 34.4753946,29.388191 34.8811599,28.9917752 L45.0112588,19.1620173 L31.7611907,19.1620173 C31.1792379,19.1620173 30.7142857,18.7104212 30.7142857,18.1514072 C30.7142857,17.5943062 31.1792379,17.1428571 31.7611907,17.1428571 L47.5256309,17.1428571 C47.9469556,17.1428571 48.3296869,17.3872694 48.4906201,17.7652917 C48.6541466,18.1416955 48.5639935,18.5732795 48.2698899,18.8671334 L36.3660169,30.4132216 C36.163897,30.612901 35.8931325,30.7142857 35.6249613,30.7142857 L35.6249613,30.7142857 Z" id="Shape" sketch:type="MSShapeGroup"></path>
            </g>
        </g>
    </g>
</svg>