<?xml version="1.0" encoding="UTF-8" standalone="no"?>
<svg width="113px" height="60px" viewBox="0 0 113 60" version="1.1" xmlns="http://www.w3.org/2000/svg" xmlns:xlink="http://www.w3.org/1999/xlink" xmlns:sketch="http://www.bohemiancoding.com/sketch/ns">
    <!-- Generator: Sketch 3.0.1 (7597) - http://www.bohemiancoding.com/sketch -->
    <title>adobe</title>
    <description>Created with Sketch.</description>
    <defs></defs>
    <g id="Page-1" stroke="none" stroke-width="1" fill="none" fill-rule="evenodd" sketch:type="MSPage">
        <g id="Monocolor-Original" sketch:type="MSArtboardGroup" transform="translate(-1595.000000, -193.000000)" fill="#FFFFFF">
            <g id="adobe" sketch:type="MSLayerGroup" transform="translate(1595.000000, 193.000000)">
                <path d="M47.5,32.7966102 L46.6488756,27.34173 C46.406097,25.7694588 46.0958021,23.3122647 45.8593203,21.6101695 L45.7669665,21.6101695 C45.5182409,23.3251335 45.1708646,25.8519709 44.9158421,27.3549774 L44,32.7966102 L47.5,32.7966102 L47.5,32.7966102 Z M43.4617786,36.4689198 L42.2982575,42.4576271 L38,42.4576271 L43.3616908,17.5423729 L48.6295492,17.5423729 L53.5,42.4576271 L49.1792963,42.4576271 L48.0415331,36.4689198 L43.4617786,36.4689198 L43.4617786,36.4689198 Z" id="path5" sketch:type="MSShapeGroup"></path>
                <path d="M63,31.143221 C63,30.8093816 63,30.4190869 62.9328586,30.0619127 C62.755468,28.8255404 62.0886317,27.7118644 61.0162767,27.7118644 C59.1767548,27.7118644 58.5,30.3265001 58.5,33.3844986 C58.5,36.89828 59.4647762,38.8983051 60.9525687,38.8983051 C61.6327569,38.8983051 62.4167091,38.5543038 62.8424466,37.0796899 C62.9462106,36.7857456 63,36.39244 63,35.9328934 L63,31.143221 L63,31.143221 Z M66.8576288,17.0338983 L66.8576288,37.0952291 C66.8576288,38.6851783 66.9367239,40.641331 67,42.1701849 L63.2771371,42.1701849 L63.0340994,40.1301182 L62.9456567,40.1301182 C62.3204458,41.3880919 60.9596504,42.4576271 59.3331674,42.4576271 C55.7681352,42.4576271 54,38.4301239 54,33.3448629 C54,27.1484777 56.6363837,24.1353032 59.5100528,24.1353032 C61.0132194,24.1353032 61.9857297,24.8886888 62.4754003,25.9784665 L62.548024,25.9784665 L62.548024,17.0338983 L66.8576288,17.0338983 L66.8576288,17.0338983 Z" id="path7" sketch:type="MSShapeGroup"></path>
                <path d="M76.3649963,39.4067797 C78.0762902,39.4067797 78.5,36.1945048 78.5,33.5349274 C78.5,31.006448 78.0762902,27.7118644 76.289828,27.7118644 C74.3975318,27.7118644 74,31.006448 74,33.5349274 C74,36.5870541 74.4992521,39.4067797 76.3253553,39.4067797 L76.3649963,39.4067797 L76.3649963,39.4067797 Z M75.9936793,42.9661017 C72.0029867,42.9661017 69.5,39.6136504 69.5,33.6127965 C69.5,27.0635933 72.7134304,24.1525424 76.0951713,24.1525424 C80.0320479,24.1525424 82.5,27.6682514 82.5,33.5066034 C82.5,41.0081431 78.6331926,42.9661017 76.0287139,42.9661017 L75.9936793,42.9661017 L75.9936793,42.9661017 Z" id="path9" sketch:type="MSShapeGroup"></path>
                <path d="M89.5,35.8470813 C89.5,36.2998532 89.5834879,36.7232684 89.6802581,37.0070506 C90.1367853,38.524947 90.9101872,38.8983051 91.5298954,38.8983051 C93.289973,38.8983051 94,36.6863842 94,33.149268 C94,29.9294308 93.249747,27.7118644 91.5097824,27.7118644 C90.6468207,27.7118644 89.9200961,28.6411196 89.6700118,29.6392503 C89.5831084,29.9531421 89.5,30.4420454 89.5,30.7792721 L89.5,35.8470813 L89.5,35.8470813 Z M85.144572,17.0338983 L89.4454992,17.0338983 L89.4454992,26.2787902 L89.5147359,26.2787902 C90.3620785,24.9144519 91.490314,24.1353032 93.1286771,24.1353032 C96.3709642,24.1353032 98,27.9176892 98,32.8634616 C98,39.1124771 95.5706165,42.4576271 92.4226779,42.4576271 C90.9227882,42.4576271 89.9240576,41.7752739 89.0229041,40.0465723 L88.9321431,40.0465723 L88.6928638,42.1701849 L85,42.1701849 C85.0631381,40.6994819 85.144572,38.6851783 85.144572,37.0952291 L85.144572,17.0338983 L85.144572,17.0338983 Z" id="path11" sketch:type="MSShapeGroup"></path>
                <path d="M108.999474,31.2711864 C109.02264,28.8794662 108.280574,27.2033898 106.859589,27.2033898 C105.238329,27.2033898 104.548948,29.4471068 104.5,31.2711864 L108.999474,31.2711864 L108.999474,31.2711864 Z M104.363359,35.0952621 C104.41606,38.4026531 106.129784,39.4789489 108.256893,39.4789489 C109.605819,39.4789489 110.761508,39.175174 111.615192,38.849403 L112.2192,42.1203865 C111.03062,42.6395722 109.195423,42.9661017 107.435726,42.9661017 C102.626463,42.9661017 100,39.6314051 100,33.9359118 C100,27.8236288 103.046577,24.1525424 107.02533,24.1525424 C110.869526,24.1525424 113,27.3969788 113,32.6931277 C113,33.9055722 112.950663,34.5885915 112.871798,35.1210507 L104.363359,35.0952621 L104.363359,35.0952621 Z" id="path13" sketch:type="MSShapeGroup"></path>
                <path d="M33.5,15 L33.5,45 L21,15 L33.5,15 Z" id="polygon15" sketch:type="MSShapeGroup"></path>
                <path d="M0,15 L0,45 L12.5,15 L0,15 Z" id="polygon17" sketch:type="MSShapeGroup"></path>
                <path d="M16.2917855,25.6779661 L24,44.4915254 L18.9494315,44.4915254 L16.6435931,38.4988877 L11,38.4988877 L16.2917855,25.6779661 Z" id="polygon19" sketch:type="MSShapeGroup"></path>
            </g>
        </g>
    </g>
</svg>