<?xml version="1.0" encoding="UTF-8" standalone="no"?>
<svg width="586px" height="220px" viewBox="0 0 586 220" version="1.1" xmlns="http://www.w3.org/2000/svg" xmlns:xlink="http://www.w3.org/1999/xlink" xmlns:sketch="http://www.bohemiancoding.com/sketch/ns">
    <!-- Generator: Sketch 3.4 (15575) - http://www.bohemiancoding.com/sketch -->
    <title>business-class-logo-white</title>
    <desc>Created with Sketch.</desc>
    <defs>
        <rect id="path-1" x="0" y="0" width="152" height="104" rx="10.8094832"></rect>
    </defs>
    <g id="Page-1" stroke="none" stroke-width="1" fill="none" fill-rule="evenodd" sketch:type="MSPage">
        <g id="Logo" sketch:type="MSLayerGroup">
            <g id="Bottom-Row" transform="translate(32.823529, 166.888889)" fill="#FFFFFF" sketch:type="MSShapeGroup">
                <path d="M0,0.864 L0,50.544 L19.584,50.544 C24.336,50.544 28.584,49.536 31.752,47.016 C34.56,44.784 36.576,41.256 36.576,35.856 C36.576,29.664 33.984,25.56 27.504,24.408 C33.12,22.896 35.64,18.36 35.64,12.816 C35.64,8.496 34.128,5.616 31.608,3.744 C29.016,1.728 25.2,0.864 20.808,0.864 L0,0.864 Z M11.304,29.808 L18.648,29.808 C22.536,29.808 24.48,30.888 24.48,35.208 C24.48,37.584 23.904,39.096 22.896,40.032 C21.888,40.968 20.304,41.328 18.216,41.328 L11.304,41.328 L11.304,29.808 Z M11.304,10.152 L18.72,10.152 C20.304,10.152 21.6,10.368 22.32,11.016 C23.04,11.664 23.544,12.816 23.544,14.904 C23.544,19.944 20.664,21.168 16.632,21.168 L11.304,21.168 L11.304,10.152 Z M44.496,0.864 L44.496,33.048 C44.496,37.656 45.072,42.336 48.024,45.864 C50.688,49.032 55.512,51.408 63.576,51.408 C71.856,51.408 77.184,48.816 80.064,45.144 C82.728,41.76 83.376,37.368 83.376,32.688 L83.376,0.864 L71.712,0.864 L71.712,32.832 C71.712,38.448 71.064,41.328 64.008,41.328 C56.592,41.328 56.16,38.16 56.16,32.832 L56.16,0.864 L44.496,0.864 Z M123.912,4.32 C120.096,1.152 113.688,0 108.936,0 C103.968,0 99.576,1.224 95.976,3.888 C92.664,6.336 90.36,9.72 90.36,14.976 C90.36,32.688 113.184,27.792 113.184,36.36 C113.184,40.68 110.376,41.544 106.992,41.544 C103.248,41.544 98.424,40.464 95.184,37.872 L89.424,46.44 C93.456,50.112 100.584,51.408 105.84,51.408 C110.664,51.408 115.344,50.256 118.728,47.952 C122.256,45.576 124.992,41.544 124.992,35.784 C124.992,17.784 102.168,22.248 102.168,14.688 C102.168,10.8 104.472,9.864 108,9.864 C111.024,9.864 115.416,10.656 118.44,12.744 L123.912,4.32 Z M131.904,0.864 L131.904,50.544 L143.568,50.544 L143.568,0.864 L131.904,0.864 Z M153.432,0.864 L153.432,50.544 L164.592,50.544 L164.232,16.632 L180.072,50.544 L194.832,50.544 L194.832,0.864 L183.672,0.864 L184.032,34.776 L168.192,0.864 L153.432,0.864 Z M204.768,0.864 L204.768,50.544 L234.864,50.544 L234.864,40.896 L216.144,40.896 L216.144,30.24 L232.848,30.24 L232.848,20.52 L216.144,20.52 L216.144,10.584 L234.504,10.584 L234.504,0.864 L204.768,0.864 Z M273.384,4.32 C269.568,1.152 263.16,0 258.408,0 C253.44,0 249.048,1.224 245.448,3.888 C242.136,6.336 239.832,9.72 239.832,14.976 C239.832,32.688 262.656,27.792 262.656,36.36 C262.656,40.68 259.848,41.544 256.464,41.544 C252.72,41.544 247.896,40.464 244.656,37.872 L238.896,46.44 C242.928,50.112 250.056,51.408 255.312,51.408 C260.136,51.408 264.816,50.256 268.2,47.952 C271.728,45.576 274.464,41.544 274.464,35.784 C274.464,17.784 251.64,22.248 251.64,14.688 C251.64,10.8 253.944,9.864 257.472,9.864 C260.496,9.864 264.888,10.656 267.912,12.744 L273.384,4.32 Z M310.896,4.32 C307.08,1.152 300.672,0 295.92,0 C290.952,0 286.56,1.224 282.96,3.888 C279.648,6.336 277.344,9.72 277.344,14.976 C277.344,32.688 300.168,27.792 300.168,36.36 C300.168,40.68 297.36,41.544 293.976,41.544 C290.232,41.544 285.408,40.464 282.168,37.872 L276.408,46.44 C280.44,50.112 287.568,51.408 292.824,51.408 C297.648,51.408 302.328,50.256 305.712,47.952 C309.24,45.576 311.976,41.544 311.976,35.784 C311.976,17.784 289.152,22.248 289.152,14.688 C289.152,10.8 291.456,9.864 294.984,9.864 C298.008,9.864 302.4,10.656 305.424,12.744 L310.896,4.32 Z M360.432,36.432 C357.696,39.528 354.312,41.4 350.496,41.4 C347.688,41.4 346.104,40.392 345.096,39.024 C343.584,37.008 342.936,33.624 342.936,26.064 C342.936,18.36 343.584,14.904 344.808,12.96 C345.816,11.376 347.688,10.152 351.288,10.152 C354.456,10.152 357.768,11.088 360.288,13.464 L366.624,5.472 C362.664,1.224 356.976,0 351.648,0 C344.52,0 339.84,2.16 336.744,5.472 C332.064,10.368 330.84,18 330.84,26.28 C330.84,33.84 331.848,41.616 336.6,46.44 C339.408,49.392 343.656,51.408 350.064,51.408 C357.264,51.408 362.808,48.888 367.272,43.632 L360.432,36.432 Z M373.536,0.864 L373.536,50.544 L402.264,50.544 L402.264,40.176 L385.2,40.176 L385.2,0.864 L373.536,0.864 Z M448.92,50.544 L433.296,0.864 L419.328,0.864 L403.704,50.544 L415.584,50.544 L418.248,41.112 L434.016,41.112 L436.68,50.544 L448.92,50.544 Z M431.568,31.824 L420.768,31.824 L426.168,12.6 L431.568,31.824 Z M484.272,4.32 C480.456,1.152 474.048,0 469.296,0 C464.328,0 459.936,1.224 456.336,3.888 C453.024,6.336 450.72,9.72 450.72,14.976 C450.72,32.688 473.544,27.792 473.544,36.36 C473.544,40.68 470.736,41.544 467.352,41.544 C463.608,41.544 458.784,40.464 455.544,37.872 L449.784,46.44 C453.816,50.112 460.944,51.408 466.2,51.408 C471.024,51.408 475.704,50.256 479.088,47.952 C482.616,45.576 485.352,41.544 485.352,35.784 C485.352,17.784 462.528,22.248 462.528,14.688 C462.528,10.8 464.832,9.864 468.36,9.864 C471.384,9.864 475.776,10.656 478.8,12.744 L484.272,4.32 Z M521.784,4.32 C517.968,1.152 511.56,0 506.808,0 C501.84,0 497.448,1.224 493.848,3.888 C490.536,6.336 488.232,9.72 488.232,14.976 C488.232,32.688 511.056,27.792 511.056,36.36 C511.056,40.68 508.248,41.544 504.864,41.544 C501.12,41.544 496.296,40.464 493.056,37.872 L487.296,46.44 C491.328,50.112 498.456,51.408 503.712,51.408 C508.536,51.408 513.216,50.256 516.6,47.952 C520.128,45.576 522.864,41.544 522.864,35.784 C522.864,17.784 500.04,22.248 500.04,14.688 C500.04,10.8 502.344,9.864 505.872,9.864 C508.896,9.864 513.288,10.656 516.312,12.744 L521.784,4.32 Z" id="BUSINESS-CLASS"></path>
            </g>
            <g id="Top-Row" transform="translate(37.000000, 0.000000)">
                <g id="Trello" transform="translate(183.529412, 0.000000)" fill="#FFFFFF" sketch:type="MSShapeGroup">
                    <path d="M264.649448,107.082074 C257.519878,110.805906 251.598571,120.72728 242.850656,126.507353 C242.275689,126.887255 241.700722,127.077206 241.317411,127.077206 C240.550789,127.077206 239.592511,126.317402 239.592511,122.898284 C239.592511,111.121324 243.425623,105.422794 246.683768,97.064951 C257.991449,68.002451 277.348666,43.1188725 294.597671,15.9558824 C295.93926,13.8664216 296.705882,11.5870098 296.705882,9.11764706 C296.705882,7.02818627 295.93926,5.31862745 294.980982,3.22916667 C294.214359,1.51960784 290.764558,0 286.931446,0 C284.823235,0 282.906678,0.18995098 280.415156,0.18995098 C271.407342,0.18995098 269.490786,13.2965686 267.382574,16.7156863 C253.008403,40.8394608 236.526021,70.6617647 228.093174,91.7463235 C226.285588,96.3665305 224.336328,100.986737 222.831442,105.723111 C213.711976,107.032214 207.318636,119.668503 196.968303,126.507353 C196.393336,126.887255 195.818369,127.077206 195.435058,127.077206 C194.668436,127.077206 193.710158,126.317402 193.710158,122.898284 C193.710158,111.121324 197.54327,105.422794 200.801415,97.064951 C212.109096,68.002451 231.466313,43.1188725 248.715318,15.9558824 C250.056907,13.8664216 250.823529,11.5870098 250.823529,9.11764706 C250.823529,7.02818627 250.056907,5.31862745 249.098629,3.22916667 C248.332006,1.51960784 244.882206,0 241.049093,0 C238.940882,0 237.024326,0.18995098 234.532803,0.18995098 C225.524989,0.18995098 223.608433,13.2965686 221.500221,16.7156863 C207.12605,40.8394608 190.643668,70.6617647 182.210821,91.7463235 C181.147541,94.464078 180.035239,97.1818324 178.993199,99.9232313 C169.854593,105.793072 161.840392,115.232981 150.555981,121.758739 C148.246398,123.100551 141.125182,128.084426 135.351223,128.084426 C134.003966,128.084426 132.849174,127.701051 131.694382,127.125988 C129.962194,126.359238 128.230007,122.717176 128.230007,121.567052 C128.230007,120.608614 128.422472,120.416927 130.347125,119.266802 C147.284071,109.107366 161.141573,94.5391178 173.074422,79.9708697 C177.501124,74.6036205 183.275083,64.0608094 183.275083,56.3933104 C183.275083,51.4094361 181.542895,45.6588119 175.576471,43.5502497 C171.342234,42.0167499 166.530601,41.25 162.681295,41.25 C152.480635,41.25 144.974488,45.8504994 140.740251,50.2593113 C136.757198,54.4943046 132.894568,58.8342414 129.274439,63.3126631 C125.234078,60.1916396 119.770904,58.854242 114.578431,58.854242 C108.158927,58.854242 96.0980392,66.7350566 89.873065,71.3482164 C88.9004128,72.1170764 88.3168215,72.5015064 87.9277606,72.5015064 C87.7332301,72.5015064 87.5386997,72.3092914 87.5386997,71.9248614 C87.5386997,71.7326464 87.9277606,70.0027115 87.9277606,66.9272716 C87.9277606,64.2362617 87.3441692,60.7763919 84.8152735,56.5476621 C84.2316821,55.5865871 80.7301342,53.4722222 76.4504644,53.4722222 C71.1981424,53.4722222 66.3348813,55.9710171 66.3348813,58.662027 C66.3348813,60.5841769 68.0856553,61.3530369 68.0856553,63.0829718 C68.0856553,64.0440468 67.3075335,68.4649916 66.1403509,72.6937214 C62.8333333,84.9954808 58.748194,97.1050253 54.4685243,109.21457 C52.1341589,115.942094 44.3529412,121.900759 44.3529412,129.204929 C44.3529412,131.511509 45.9091847,134.586949 48.0490196,136.893529 C51.5505676,140.737828 53.6904025,142.083333 56.8028896,142.083333 C58.1646027,142.083333 59.7208462,141.698903 61.0825593,140.545613 C64.000516,138.046819 65.5567595,135.548024 66.3348813,132.088154 C71.3926729,109.406785 85.9824561,94.0295854 102.128483,83.8421909 C107.575335,80.382321 114.967492,76.7302362 115.940144,76.7302362 C116.742879,76.7302362 117.909988,77.0248128 119.154422,77.3708507 C114.456882,84.8656155 110.654368,92.7819804 108.213615,101.248179 C107.443754,103.931804 107.058824,106.423741 107.058824,109.107366 C107.058824,113.516178 108.02115,118.116677 109.560872,122.525489 C111.677991,128.659488 115.142366,134.026737 119.953999,136.518675 C128.807403,141.119174 135.158757,143.611111 140.932716,143.611111 C144.204627,143.611111 146.706675,143.036049 149.40119,141.502549 C161.435477,134.721193 169.040414,129.496819 174.57397,124.868703 C175.005173,128.158057 176.172105,130.451956 178.952676,133.345588 C182.402477,136.954657 187.768834,140.183824 194.860091,141.703431 C196.010025,141.893382 197.159959,142.083333 198.309892,142.083333 C206.862588,142.083333 215.076023,134.820507 221.214196,128.01738 C221.898859,129.832639 223.025095,131.462061 224.835029,133.345588 C228.28483,136.954657 233.651187,140.183824 240.742444,141.703431 C241.892378,141.893382 243.042312,142.083333 244.192245,142.083333 C253.332962,142.083333 262.086166,133.787496 268.332605,126.623207 C270.773963,130.555077 276.254071,134.394743 282.75,137.51826 C284.661765,138.461709 286.955882,139.027778 289.058824,139.027778 C297.279412,139.027778 303.205882,132.423639 307.794118,127.517707 C319.647059,114.686808 326.147059,98.8368747 331.117647,78.835768 C331.5,77.3262506 332.073529,76.7601815 332.838235,76.7601815 C334.75,76.7601815 337.235294,76.7601815 339.911765,76.3828021 C345.073529,75.6280434 349.088235,73.9298362 353.867647,73.1750775 C356.735294,72.6090084 356.352941,71.66556 359.029412,70.7221116 C360.941176,69.9673528 362.470588,69.2125941 362.470588,67.3256972 C362.470588,64.1179726 356.544118,60.7215582 347.558824,60.7215582 C340.485294,60.7215582 336.279412,61.2876273 333.411765,61.2876273 C329.014706,61.2876273 327.867647,59.9667995 325,52.6079017 C325,52.6079017 327.867647,59.9667995 325,52.6079017 C324.426471,51.0983842 323.852941,50.3436255 322.132353,48.834108 C318.117647,45.4376937 313.147059,44.3055556 309.132353,44.3055556 C299.573529,44.3055556 291.352941,53.9287295 285.617647,62.042386 C284.279412,63.9292829 282.367647,65.4388004 281.029412,67.5143869 C273.04515,79.3349933 265.405364,92.6855806 264.649448,107.082074 Z M28.6372176,41.2146893 C29.2216506,41.2146893 29.6112726,41.4053672 29.6112726,41.9774011 C29.6112726,42.3587571 29.4164616,42.930791 28.0527846,45.7909605 C16.1693134,70.769774 7.98725117,96.1299435 0.779244017,124.159605 C0.584433013,124.922316 0,127.782486 0,130.642655 C0,133.312147 0.779244017,136.172316 3.50659808,137.69774 C8.76649519,140.748588 13.0523373,142.083333 15.9745023,142.083333 C20.2603444,142.083333 22.4032655,139.413842 22.4032655,135.028249 C22.4032655,131.214689 22.5980765,127.210452 23.1825095,124.159605 C28.6372176,96.1299435 36.8192798,74.2019774 49.4819951,51.3206215 C55.5211362,40.4519774 56.3003802,39.8799435 56.3003802,38.9265537 C56.3003802,38.5451977 56.1055692,37.9731638 55.7159472,37.4011299 C63.5083874,35.6850282 72.8593156,34.5409605 81.4309998,34.5409605 C82.4050548,34.5409605 86.3012749,35.8757062 86.8857079,36.4477401 C88.2493849,37.7824859 89.613062,39.1172316 91.950794,39.1172316 C93.898904,39.1172316 97.2106911,37.7824859 98.3795571,37.019774 C101.106911,35.1129944 102.470588,33.0155367 102.470588,29.5833333 C102.470588,26.3418079 90.197495,18.3333333 81.6258108,18.3333333 C71.1060166,18.3333333 61.5602773,19.6680791 52.5989711,21.3841808 C48.7027511,22.1468927 34.6763588,24.2443503 24.5461865,24.2443503 C14.8056363,24.2443503 15.3900693,22.9096045 11.2990382,22.9096045 C8.9613062,22.9096045 7.79244017,24.0536723 6.81838515,25.0070621 C5.84433013,25.960452 5.25989711,29.7740113 5.25989711,33.2062147 C5.25989711,34.9223164 5.25989711,36.2570621 6.23395214,37.4011299 C9.1561172,40.8333333 14.8056363,41.5960452 20.4551554,41.5960452 C25.3254306,41.5960452 28.0527846,41.2146893 28.6372176,41.2146893 Z M162.117647,56.1674528 C162.117647,57.9186321 161.547511,59.0860849 159.266968,62.7830189 C156.986425,66.4799528 157.936652,66.4799528 155.085973,70.3714623 C149.574661,77.9599057 142.733032,85.5483491 133.800905,93.9150943 C131.330317,96.25 130.950226,96.25 130.570136,96.25 C130.38009,96.25 130,96.0554245 130,95.6662736 C130,95.0825472 130.190045,94.3042453 132.090498,90.2181604 C137.9819,77.5707547 145.20362,69.2040094 153.18552,61.0318396 C157.556561,56.5566038 160.217195,55 161.167421,55 C161.737557,55 162.117647,55.1945755 162.117647,56.1674528 C162.117647,56.1674528 162.117647,55.1945755 162.117647,56.1674528 Z M312.098672,61.1111111 C312.296015,61.1111111 312.493359,61.297309 312.690702,61.6697049 C312.888046,62.2282986 313.282732,62.7868924 314.26945,63.531684 C315.058824,64.0902778 315.058824,66.6970486 315.058824,68.7452257 C315.058824,86.8064236 304.204934,101.702257 293.548387,116.784288 C291.180266,120.135851 289.798861,120.694444 288.614801,120.694444 C287.628083,120.694444 286.049336,118.273872 285.457306,116.784288 C284.667932,114.736111 284.470588,112.315538 284.470588,111.384549 C284.470588,96.8611111 299.074004,75.2621528 308.743833,63.3454861 C310.322581,61.297309 311.506641,61.1111111 312.098672,61.1111111 C312.098672,61.1111111 311.506641,61.1111111 312.098672,61.1111111 Z" id="Type"></path>
                </g>
                <g id="Business-Class-Mark" transform="translate(0.000000, 14.000000)">
                    <path d="M58.1599618,0 C51.4442003,0 46,5.43620668 46,12.164237 L46,27.835763 C46,34.5538856 51.4437114,40 58.1599618,40 L93.8400382,40 C100.5558,40 106,34.5637933 106,27.835763 L106,12.164237 C106,5.4461144 100.556289,0 93.8400382,0 L58.1599618,0 Z M60.05554,10 C57.8157271,10 56,11.8101409 56,14.0472984 L56,25.9527016 C56,28.1879628 57.8226576,30 60.05554,30 L91.94446,30 C94.1842729,30 96,28.1898591 96,25.9527016 L96,14.0472984 C96,11.8120372 94.1773424,10 91.94446,10 L60.05554,10 Z" id="Handle" fill="#D2D7E4" sketch:type="MSShapeGroup"></path>
                    <g id="Briefcase" transform="translate(0.000000, 20.000000)">
                        <mask id="mask-2" sketch:name="Briefcase Frame" fill="white">
                            <use xlink:href="#path-1"></use>
                        </mask>
                        <use id="Briefcase-Frame" fill="#D2D7E4" sketch:type="MSShapeGroup" xlink:href="#path-1"></use>
                        <rect id="Rectangle-846" fill="#FFFFFF" sketch:type="MSShapeGroup" mask="url(#mask-2)" x="17" y="0" width="118" height="104"></rect>
                        <rect id="Rectangle-845" fill="#8390B4" sketch:type="MSShapeGroup" mask="url(#mask-2)" x="24" y="0" width="104" height="104"></rect>
                        <g id="Lists" mask="url(#mask-2)" fill="#FFFFFF" sketch:type="MSShapeGroup">
                            <g transform="translate(37.000000, 13.000000)">
                                <rect id="Left-List" x="0" y="0" width="33" height="72" rx="5"></rect>
                                <rect id="Right-List" x="45" y="0" width="33" height="43" rx="5"></rect>
                            </g>
                        </g>
                    </g>
                </g>
            </g>
        </g>
    </g>
</svg>