<?xml version="1.0" encoding="UTF-8" standalone="no"?>
<svg width="173px" height="60px" viewBox="0 0 173 60" version="1.1" xmlns="http://www.w3.org/2000/svg" xmlns:xlink="http://www.w3.org/1999/xlink" xmlns:sketch="http://www.bohemiancoding.com/sketch/ns">
    <!-- Generator: Sketch 3.0.1 (7597) - http://www.bohemiancoding.com/sketch -->
    <title>freshdirect</title>
    <description>Created with Sketch.</description>
    <defs></defs>
    <g id="Page-1" stroke="none" stroke-width="1" fill="none" fill-rule="evenodd" sketch:type="MSPage">
        <g id="Monocolor-Original" sketch:type="MSArtboardGroup" transform="translate(-205.000000, -186.000000)" fill="#FFFFFF">
            <g id="freshdirect" sketch:type="MSLayerGroup" transform="translate(205.000000, 186.000000)">
                <path d="M22.0015134,18.2818933 C22.9396233,15.3539882 28.3310105,16.9719144 28.3310105,16.9719144 L28.3310105,13.3505265 C16.5320521,9.19023079 15.1608746,15.6053983 14.8132006,19.5918722 C14.7491554,20.3178339 14.8485779,21.4954917 15.0571823,22.9498209 L11.4529617,23.3672338 L11.60972,27.6051178 L15.7519204,26.9465196 C17.2865658,34.7727112 20.1265135,45.4035088 20.1265135,45.4035088 L23.0957717,45.1725483 C23.0957717,45.1725483 22.1479025,33.996227 21.846585,25.9769668 L26.1431039,25.2937088 L26.0650298,21.6723208 L21.7563118,22.1715322 C21.7477724,20.2829493 21.8148674,18.8635047 22.0015134,18.2818933" id="Fill-1" sketch:type="MSShapeGroup"></path>
                <path d="M29.6800483,24.9363116 L25.3170732,26.2529055 L28.27762,46 L31.4717021,45.7672688 C31.4717021,45.7672688 30.9261782,38.798026 31.3160119,36.4749451 C31.7058456,34.1518642 32.8747386,32.2930368 36.5358914,31.2085696 L36.7700348,23.9298246 C36.7700348,23.9298246 31.8615358,24.394078 30.3812624,27.1820169 C30.1477271,26.9498902 29.6800483,24.9363116 29.6800483,24.9363116" id="Fill-4" sketch:type="MSShapeGroup"></path>
                <path d="M46.4284898,28.1058286 C50.0586251,28.1830852 49.3779378,32.2040487 49.3779378,32.2040487 L44.0085963,32.2807018 C44.0085963,32.2807018 43.7771745,28.0490933 46.4284898,28.1058286 L46.4284898,28.1058286 Z M53.6213674,35.7810304 C53.6213674,35.7810304 54.5282476,23.5230938 45.7746238,23.9402346 C37.6995247,24.3243642 33.1288486,41.8550801 46.1558108,45.1615959 C49.7779795,46.080506 52.9357065,44.0854328 52.9357065,44.0854328 L52.6312327,40.778917 C52.6312327,40.778917 43.4131672,44.7000402 44.0988281,36.1657602 L53.6213674,35.7810304 L53.6213674,35.7810304 Z" id="Fill-5" sketch:type="MSShapeGroup"></path>
                <path d="M132.627114,28.1058286 C136.257227,28.1830852 135.576544,32.2040487 135.576544,32.2040487 L130.207236,32.2807018 C130.207236,32.2807018 129.975225,28.0490933 132.627114,28.1058286 L132.627114,28.1058286 Z M139.819978,35.7810304 C139.819978,35.7810304 140.726824,23.5230938 131.972936,23.9402346 C123.898141,24.3243642 119.327638,41.8550801 132.354108,45.1615959 C135.97614,46.080506 139.133748,44.0854328 139.133748,44.0854328 L138.829286,40.778917 C138.829286,40.778917 129.612163,44.7000402 130.297203,36.1657602 L139.819978,35.7810304 L139.819978,35.7810304 Z" id="Fill-6" sketch:type="MSShapeGroup"></path>
                <path d="M63.0231955,40.4974349 C63.8717263,38.8891745 60.8835006,37.9654711 58.0855772,35.9022345 C55.3858159,33.9113397 53.3798144,26.1755476 59.3201323,24.3371088 C65.2604502,22.4992678 68.1149826,27.4771026 68.1149826,27.4771026 L65.5687879,29.8518275 C65.5687879,29.8518275 61.171965,26.8648875 60.5546874,28.5496747 C59.8530988,30.467032 62.0975802,30.4646405 66.1089811,33.5281074 C69.7506176,36.3093815 67.5747894,45.6289214 62.3288335,45.3993407 C58.7389881,45.2426997 55.771238,44.7100009 55.771238,44.7100009 L55.8483224,37.8172003 C55.8483224,37.8172003 60.3999164,41.8761146 63.0231955,40.4974349" id="Fill-7" sketch:type="MSShapeGroup"></path>
                <path d="M70.9562896,45.1729505 L69.3205575,17.0988727 L76.1734911,16.1754386 L75.628247,26.7901274 C75.628247,26.7901274 77.2633713,24.3284371 80.2223992,24.4821426 C83.1814271,24.6364486 85.3617954,25.636135 85.4396006,29.86664 C85.5174058,34.097145 85.5958188,45.4035088 85.5958188,45.4035088 L80.5336199,45.0954973 C80.5336199,45.0954973 81.9359365,29.4049229 80.9232536,28.6357948 C79.9105707,27.8666667 75.7060522,28.6357948 75.4726367,31.4817491 C75.2386133,34.3277033 75.3164185,45.0954973 75.3164185,45.0954973 L70.9562896,45.1729505" id="Fill-8" sketch:type="MSShapeGroup"></path>
                <path d="M97.8471495,39.81664 C97.6150767,41.6304105 94.4403945,42.9910334 93.743572,40.3453122 C93.0467494,37.700181 93.6601708,32.5763089 94.2083218,30.9725911 C94.6724672,29.6119682 97.4597572,29.460919 98.0018646,30.9725911 C98.543972,32.4842632 98.0792222,38.0022794 97.8471495,39.81664 L97.8471495,39.81664 Z M97.7326032,16.1754386 L97.8884163,25.710081 C97.8884163,25.710081 89.9352546,25.0997638 88.3759066,29.9054903 C87.1154032,33.7918708 86.3485108,42.8727945 90.8707417,45.0086068 C94.3771444,46.663906 97.4203684,45.4658981 98.0442294,44.9323916 L98.0442294,46 L103.034508,45.7713544 L104.28223,16.4808949 L97.7326032,16.1754386 L97.7326032,16.1754386 Z" id="Fill-10" sketch:type="MSShapeGroup"></path>
                <path d="M109.938801,26.3917747 L105.032959,26.3157895 L104.885017,45.4035088 L110.310105,45.4035088 L109.938801,26.3917747" id="Fill-12" sketch:type="MSShapeGroup"></path>
                <path d="M117.281747,24.6967205 L110.912892,25.8473637 L113.035844,45.4035088 L117.831664,45.4035088 C117.831664,45.4035088 117.124628,35.2033741 118.146517,33.4396931 C119.168406,31.6754134 123.571429,31.0617769 123.571429,31.0617769 L123.571429,23.9298246 C123.571429,23.9298246 118.932727,24.083084 117.674545,26.6902906 L117.281747,24.6967205" id="Fill-13" sketch:type="MSShapeGroup"></path>
                <path d="M154.378455,29.5366714 L154.606953,25.3422874 C148.143729,24.1981481 142.681741,27.5644894 142.289437,34.5698131 C141.909596,41.3566669 144.874727,47.6101445 155.519164,45.6272474 L155.366634,41.5852566 C155.366634,41.5852566 147.140119,44.0408107 147.003614,35.8663456 C146.851084,26.7912131 154.378455,29.5366714 154.378455,29.5366714" id="Fill-15" sketch:type="MSShapeGroup"></path>
                <path d="M166.369338,28.8401967 L166.369338,25.2456684 L163.043358,25.2707423 C163.134777,22.4570881 163.209958,20.3508772 163.209958,20.3508772 L159.28073,20.3508772 C159.28073,20.3508772 159.081051,22.4224622 158.863329,25.3023832 L156.275921,25.3220842 L156.121951,29.2222757 L158.599295,29.130338 C158.278125,34.3743733 158.090474,40.3664478 158.741837,42.2237103 C159.974795,45.7418228 164.365931,45.665407 166.369338,45.1298993 L166.292353,40.3885368 C166.292353,40.3885368 162.979605,41.1532919 162.748049,39.3939372 C162.658434,38.7121648 162.783534,33.686631 162.926678,28.9685514 L166.369338,28.8401967" id="Fill-16" sketch:type="MSShapeGroup"></path>
                <path d="M15.6724739,39.7675531 C15.3678143,35.2814658 13.6942651,33.2625514 9.43378192,32.7389995 C5.68581572,32.2790676 0.532139497,30.0476973 2.45052672e-05,28.7017544 C2.45052672e-05,28.7017544 -0.0296694117,35.2592864 1.97823325,37.8239322 C4.26050771,40.7399473 6.31473288,41.4129188 10.3465729,41.1882058 C14.9057769,40.9348931 15.6724739,39.7675531 15.6724739,39.7675531" id="Fill-17" sketch:type="MSShapeGroup"></path>
                <path d="M105.487805,24.4267089 C105.628237,22.289618 106.400611,21.3302692 108.366656,21.0808507 C110.098048,20.8612407 112.476386,19.7984745 112.721241,19.1578947 C112.721241,19.1578947 112.735645,22.2811013 111.809635,23.501427 C110.754596,24.8908707 109.806982,25.2108564 107.945361,25.1037889 C105.841885,24.983338 105.487805,24.4267089 105.487805,24.4267089" id="Fill-19" sketch:type="MSShapeGroup"></path>
                <path d="M170.714707,43.0175439 C171.019413,43.0175439 171.191638,42.9601364 171.191638,42.6616174 C171.191638,42.4210526 170.840248,42.4210526 170.575287,42.4210526 L169.986063,42.4210526 L169.986063,43.0175439 L170.714707,43.0175439 L170.714707,43.0175439 Z M171.713394,44.2105263 L171.044091,44.2105263 L170.427745,43.2026285 L169.998983,43.2026285 L169.998983,44.2105263 L169.383275,44.2105263 L169.383275,41.8245614 L170.723157,41.8245614 C171.359282,41.8245614 171.794425,41.9227583 171.794425,42.5538667 C171.794425,42.994098 171.532829,43.1739418 171.044091,43.2026285 L171.713394,44.2105263 L171.713394,44.2105263 Z M172.397213,43.0237319 C172.397213,41.9723247 171.607124,41.2280702 170.58885,41.2280702 C169.552892,41.2280702 168.780488,41.9723247 168.780488,43.0237319 C168.780488,44.062763 169.552892,44.8070175 170.58885,44.8070175 C171.607124,44.8070175 172.397213,44.062763 172.397213,43.0237319 L172.397213,43.0237319 Z M168.1777,43.0238408 C168.1777,41.6951881 169.2432,40.6315789 170.58885,40.6315789 C171.9287,40.6315789 173,41.6951881 173,43.0238408 C173,44.3393272 171.9287,45.4035088 170.58885,45.4035088 C169.2432,45.4035088 168.1777,44.3393272 168.1777,43.0238408 L168.1777,43.0238408 Z" id="Fill-20" sketch:type="MSShapeGroup"></path>
            </g>
        </g>
    </g>
</svg>