<?xml version="1.0" encoding="UTF-8" standalone="no"?>
<svg width="128px" height="59px" viewBox="0 0 128 59" version="1.1" xmlns="http://www.w3.org/2000/svg" xmlns:xlink="http://www.w3.org/1999/xlink" xmlns:sketch="http://www.bohemiancoding.com/sketch/ns">
    <!-- Generator: Sketch 3.0.1 (7597) - http://www.bohemiancoding.com/sketch -->
    <title>google</title>
    <description>Created with Sketch.</description>
    <defs></defs>
    <g id="Page-1" stroke="none" stroke-width="1" fill="none" fill-rule="evenodd" sketch:type="MSPage">
        <g id="Monocolor-Original" sketch:type="MSArtboardGroup" transform="translate(-895.000000, -336.000000)" fill="#FFFFFF">
            <g id="google" sketch:type="MSLayerGroup" transform="translate(895.000000, 336.000000)">
                <path d="M19.4430095,31.3749268 L24.8491881,31.3749268 L24.8491881,39.12922 C23.1620611,39.6832217 21.0320904,39.9857192 18.8181906,39.9857192 C9.84455329,39.9857192 4.56972387,32.1383525 4.56972387,24.4743732 C4.56972387,16.9586774 9.34060912,11.6865677 15.9949987,11.6865677 C20.2071676,11.6865677 22.6568412,13.1430227 24.8491881,15.1730712 L24.8491881,17.70222 L28.9603734,13.5041069 C26.3604667,11.7077535 22.5953044,10 17.2134653,10 C5.40003492,10 0,18.6304013 0,25.7227583 C0,35.8191448 7.20120479,41.9 16.2509323,41.9 C20.6385467,41.9 24.5340509,41.2157125 29.0358257,39.9380341 L29.0358257,31.9269745 C29.0358257,31.5180166 29.2120266,31.2357793 29.4758495,30.9897944 L30.8965517,29.5390643 L21.2534452,29.5390643 L19.4430095,31.3749268 Z" id="path4423" sketch:type="MSShapeGroup"></path>
                <path d="M44.1267339,21 C37.3210221,21 33.1034483,26.1412901 33.1034483,31.5975681 C33.1034483,36.307886 36.5007679,41.9 43.3850456,41.9 C50.0061208,41.9 54.0689655,36.7484107 54.0689655,31.1955138 C54.0689655,26.0227701 50.0988676,21 44.1267339,21 L44.1267339,21 Z M43.0264253,22.1 C47.6116314,22.1 49.6551724,28.3974927 49.6551724,32.8890293 C49.6551724,39.5679159 44.9009383,39.7 44.3327911,39.7 C42.156751,39.7 40.6362863,38.3143269 39.498579,36.4963216 C38.4959239,34.8206726 37.5172414,31.7089877 37.5172414,28.6673809 C37.5172414,25.6381449 38.4576129,24.1595644 39.939044,23.0708393 C41.1503226,22.2559117 42.2839033,22.1 43.0264253,22.1 L43.0264253,22.1 Z" id="path4425" sketch:type="MSShapeGroup"></path>
                <path d="M90.1073417,21 C83.9798632,21 80.6659626,24.8225361 80.6659626,29.0892603 C80.6659626,32.3386037 83.0290784,36.00284 87.9021561,36.00284 L89.1344407,36.00284 C89.1344407,36.00284 88.7990621,36.8056682 88.7967761,37.5834836 C88.7967761,38.7275657 89.2146787,39.3708827 90.1016611,40.3605551 C81.7167462,40.8644597 78.3448276,44.1960753 78.3448276,47.7769303 C78.3448276,50.9122664 81.393231,54 87.7987628,54 C95.3829949,54 99.3103448,49.8514461 99.3103448,45.7813767 C99.3103448,42.9119495 97.8594276,41.3386766 94.1836853,38.6253823 C93.1024205,37.7973539 92.8934172,37.2707229 92.8934172,36.650593 C92.8934172,35.7630016 93.4319107,35.1761936 93.6291546,34.9549526 C93.9769507,34.5931732 94.5797489,34.1800547 94.8047201,33.9821373 C96.0387886,32.9512434 97.7837271,31.4255731 97.7837271,28.3828146 C97.7837271,26.2945811 96.9028756,24.4983269 94.8938947,22.8146809 L97.3455268,22.8146809 L99.1875199,21 L90.1073417,21 L90.1073417,21 Z M88.9669669,22.1 C90.0946996,22.1 91.0362224,22.479337 92.0310936,23.2635337 C93.1348054,24.207439 94.8965517,26.7442928 94.8965517,29.8847662 C94.8965517,33.2723258 92.1241722,34.2 90.623633,34.2 C89.8896174,34.2 89.0085422,34.0053938 88.263263,33.5218141 C86.6075634,32.5027421 84.9655172,29.7905325 84.9655172,26.5624312 C84.9655172,23.649977 86.7930354,22.1 88.9669669,22.1 L88.9669669,22.1 Z M91.4458531,41.9 C91.918752,41.9 92.2588151,41.9396135 92.2588151,41.9396135 C92.2588151,41.9396135 93.3748109,42.7587718 94.1550722,43.3697839 C95.9701207,44.8445173 97.1034483,45.9705045 97.1034483,47.9775449 C97.1034483,50.7361615 94.6118485,52.9 90.5750252,52.9 C86.1446013,52.9 82.7586207,50.7820922 82.7586207,47.3229058 C82.7586207,44.4575975 85.0780071,41.9911056 91.4458531,41.9 L91.4458531,41.9 Z" id="path4429" sketch:type="MSShapeGroup"></path>
                <path d="M100.132147,41.9 L108.037622,41.9 L109.241379,40.611188 L106.974593,40.3074728 C106.364837,40.2274404 106.001939,39.663363 106.001939,39.1161877 L106.001939,13.5529317 C106.001939,13.0496496 106.219779,12.791361 106.37981,12.6269923 L107.806013,11.1 L101.065041,11.1 L99.3103448,12.9786956 L101.930525,12.9786956 L101.930525,39.4594225 C101.930525,39.8365138 101.820653,40.091422 101.581786,40.3545025 L100.132147,41.9 Z" id="path4433" sketch:type="MSShapeGroup"></path>
                <path d="M119.70287,21 C115.165436,21 110.344828,24.5903023 110.344828,31.0349615 C110.344828,36.3582569 113.803161,41.9 120.265637,41.9 C121.877537,41.9 123.203335,41.6847305 124.446729,41.0918754 C125.779622,40.4549939 127.063908,39.4196163 128,38.1178916 C126.231304,39.0434375 124.789401,39.651628 122.872743,39.651628 C119.231244,39.651628 115.721727,36.9255297 114.492589,31.9134068 L127.353791,26.517064 C126.610436,23.7673807 124.515882,21 119.70287,21 L119.70287,21 Z M118.398985,22.1 C120.769076,22.1 122.482759,24.0796263 122.482759,25.6297172 C122.482759,26.1313544 122.172728,26.395105 121.560778,26.6395568 L113.862978,29.8 C113.862978,29.8 113.655172,28.8168348 113.655172,27.7520093 C113.655172,23.2924095 116.831676,22.1 118.398985,22.1 L118.398985,22.1 Z" id="path4435" sketch:type="MSShapeGroup"></path>
                <path d="M67.2995677,21 C60.4938559,21 56.2758621,26.1412901 56.2758621,31.5975681 C56.2758621,36.307886 59.6731817,41.9 66.557493,41.9 C73.1785346,41.9 77.2413793,36.7484107 77.2413793,31.1955138 C77.2413793,26.0227701 73.2716678,21 67.2995677,21 L67.2995677,21 Z M66.1988157,22.1 C70.7840158,22.1 72.8275862,28.3974927 72.8275862,32.8890293 C72.8275862,39.5679159 68.0736956,39.7 67.5055652,39.7 C65.329544,39.7 63.808712,38.3143269 62.6709742,36.4963216 C61.6683204,34.8206726 60.6896552,31.7089877 60.6896552,28.6673809 C60.6896552,25.6381449 61.6300254,24.1595644 63.1114546,23.0708393 C64.3227477,22.2559117 65.4563269,22.1 66.1988157,22.1 L66.1988157,22.1 Z" id="path4439" sketch:type="MSShapeGroup"></path>
            </g>
        </g>
    </g>
</svg>