<?xml version="1.0" encoding="UTF-8" standalone="no"?>
<svg width="257px" height="60px" viewBox="0 0 257 60" version="1.1" xmlns="http://www.w3.org/2000/svg" xmlns:xlink="http://www.w3.org/1999/xlink" xmlns:sketch="http://www.bohemiancoding.com/sketch/ns">
    <!-- Generator: Sketch 3.0.1 (7597) - http://www.bohemiancoding.com/sketch -->
    <title>kickstarter</title>
    <description>Created with Sketch.</description>
    <defs></defs>
    <g id="Page-1" stroke="none" stroke-width="1" fill="none" fill-rule="evenodd" sketch:type="MSPage">
        <g id="Monocolor-Original" sketch:type="MSArtboardGroup" transform="translate(-307.000000, -497.000000)" fill="#FFFFFF">
            <g id="kickstarter" sketch:type="MSLayerGroup" transform="translate(307.000000, 497.000000)">
                <path d="M76.7605822,25.3640031 L82.083094,17.6269973 C83.089276,16.1705044 84.3881599,15.4411765 85.981376,15.4411765 C87.2802556,15.4411765 88.4046175,15.9043473 89.3550274,16.8284153 C90.304885,17.7540391 90.7798139,18.8610485 90.7798139,20.1504498 C90.7798139,21.1037707 90.5285434,21.9445699 90.0254502,22.6738978 L85.2264601,29.6739832 L91.09404,37.1371862 C91.6810741,37.8805865 91.9743151,38.7494729 91.9743151,39.7439385 C91.9743151,41.0619278 91.5131923,42.1931506 90.5914991,43.1395483 C89.6687013,44.0859504 88.5515141,44.5588235 87.2388329,44.5588235 C85.7991359,44.5588235 84.7029339,44.0896292 83.9485702,43.1497203 L76.7605778,34.1523358 L76.7605778,39.1137513 C76.7605778,40.5295339 76.5164864,41.6295935 76.0271993,42.4145463 C75.1331182,43.8439935 73.8336908,44.5588235 72.1294695,44.5588235 C70.5787717,44.5588235 69.3770913,44.0333573 68.5249807,42.982212 C67.7286465,42.0148187 67.3304795,40.732323 67.3304795,39.1346937 L67.3304795,20.7384419 C67.3304795,19.2257124 67.7358257,17.978032 68.5459659,16.9972312 C69.3980766,15.9599146 70.5715925,15.4411765 72.0665138,15.4411765 C73.4918525,15.4411765 74.6786223,15.9599146 75.6290322,16.9972312 C76.1597376,17.5722589 76.494949,18.1533278 76.6346664,18.7419892 C76.7191595,19.1062631 76.7605778,19.7857858 76.7605778,20.781324 L76.7605778,25.3640031 L76.7605822,25.3640031 Z M52.5553705,15.0001247 C56.0287429,14.986148 59.2232001,16.1467774 62.1386317,18.4817317 C64.4265314,20.3160191 65.5702055,22.2138128 65.5702055,24.1731966 C65.5702055,25.8407386 64.8726371,27.133756 63.4780649,28.0505393 C62.6828926,28.5795597 61.8176971,28.8431052 60.8835679,28.8431052 C60.1159718,28.8431052 59.3836674,28.6624094 58.6861034,28.3012332 C58.3932919,28.1482228 57.6676048,27.4464179 56.5101448,26.195489 C55.4354,25.0280118 54.0896804,24.4436118 52.471826,24.4436118 C50.9092826,24.4436118 49.6011179,24.9826841 48.5484304,26.0596199 C47.4949136,27.1369426 46.9684617,28.4535799 46.9684617,30.0105823 C46.9684617,31.55363 47.4949136,32.863402 48.5484304,33.9405049 C49.6011179,35.0178803 50.9026125,35.5560735 52.4507083,35.5560735 C53.7336173,35.5560735 54.9265367,35.1253959 56.0287429,34.2634956 C56.7119697,33.6106445 57.3891306,32.9576265 58.0585715,32.3036723 C58.7837072,31.6781243 59.7045976,31.3651855 60.8207,31.3651855 C62.1038869,31.3651855 63.2166852,31.8137165 64.1579786,32.7107784 C65.0992764,33.6063592 65.5701967,34.6944457 65.5701967,35.9728491 C65.5701967,37.7101079 64.5450853,39.4684109 62.4943022,41.2469054 C59.6207796,43.7488293 56.3005955,45 52.5340233,45 C50.2044308,45 48.0075795,44.5063962 45.9431165,43.519839 C43.3341786,42.2684441 41.2594059,40.430957 39.7181479,38.0052461 C38.1760649,35.5807966 37.4058219,32.9292774 37.4058219,30.0520072 C37.4058219,25.7441539 39.0097229,22.0749814 42.2187908,19.0450875 C45.0500669,16.3757677 48.4956472,15.0280343 52.555366,15.0001247 L52.5553705,15.0001247 Z M35.6455479,21.3072113 L35.6455479,39.1137513 C35.6455479,40.6557114 35.2554975,41.9237048 34.4749593,42.9187997 C33.6397022,44.0123617 32.4830768,44.5588235 31.0042085,44.5588235 C29.6488495,44.5588235 28.5055337,44.0474208 27.5744861,43.0241988 C26.7941644,42.1689106 26.4041096,40.8656364 26.4041096,39.1137513 L26.4041096,21.3072113 C26.4041096,19.3165738 26.7941644,17.8730984 27.5744861,16.9756239 C28.4643495,15.9523797 29.6078775,15.4411765 31.0042085,15.4411765 C32.400808,15.4411765 33.5436909,15.9458998 34.4341474,16.9554571 C35.2417463,17.8795828 35.6455479,19.3306462 35.6455479,21.3072113 L35.6455479,21.3072113 Z M9.43007375,25.3640031 L14.7528007,17.6269973 C15.7585012,16.1705044 17.0577722,15.4411765 18.6508964,15.4411765 C19.9499509,15.4411765 21.0740489,15.9043473 22.0242994,16.8284153 C22.9741699,17.7540391 23.4493768,18.8610485 23.4493768,20.1504498 C23.4493768,21.1037707 23.1978258,21.9445699 22.6950064,22.6738978 L17.8960842,29.6739832 L23.7637162,37.1371862 C24.3504816,37.8805865 24.6438356,38.7494729 24.6438356,39.7439385 C24.6438356,41.0619278 24.1826513,42.1931506 23.2606186,43.1395483 C22.3386432,44.0859504 21.2207834,44.5588235 19.9076488,44.5588235 C18.4688226,44.5588235 17.3722795,44.0896292 16.6179091,43.1497203 L9.43007375,34.1523358 L9.43007375,39.1137513 C9.43007375,40.5295339 9.18542801,41.6295935 8.69663135,42.4145463 C7.80243185,43.8439935 6.50315865,44.5588235 4.79872913,44.5588235 C3.24833785,44.5588235 2.04633756,44.0333573 1.19423568,42.982212 C0.398006696,42.0148187 0,40.732323 0,39.1346937 L0,20.7384419 C0,19.2257124 0.404909792,17.978032 1.21537573,16.9972312 C2.06747761,15.9599146 3.24057325,15.4411765 4.73595491,15.4411765 C6.16082029,15.4411765 7.34831855,15.9599146 8.29862863,16.9972312 C8.82928125,17.5722589 9.16427472,18.1533278 9.30427172,18.7419892 C9.38799247,19.1062631 9.43007375,19.7857858 9.43007375,20.781324 L9.43007375,25.3640031 L9.43007375,25.3640031 Z" id="path42088" sketch:type="MSShapeGroup"></path>
                <path d="M253.853583,33.3802937 L256.077414,36.9252681 C256.692659,37.9124176 257,38.9279313 257,39.9702351 C257,41.2916564 256.541192,42.3861555 255.625792,43.2550072 C254.710383,44.1240745 253.588239,44.5588235 252.259364,44.5588235 C250.552931,44.5588235 249.259973,43.8357455 248.379398,42.3891541 L244.435863,35.9662541 L244.435863,39.8246768 C244.435863,41.1456673 243.998061,42.2648503 243.124667,43.1820104 C242.250713,44.0998126 241.14903,44.5588235 239.820694,44.5588235 C238.198284,44.5588235 236.968348,43.9817347 236.129222,42.8273415 C235.373572,41.8129271 234.996575,40.4779809 234.996575,38.8231188 L234.996575,21.2839618 C234.996575,17.6831999 236.947342,15.8823529 240.848866,15.8823529 L246.847639,15.8823529 C248.81996,15.8823529 250.651321,16.4491663 252.343382,17.5822918 C254.03489,18.7158614 255.272566,20.1858442 256.055855,21.9935591 C256.643461,23.3559856 256.936983,24.7250602 256.936983,26.1012225 C256.936983,28.6736098 255.909917,31.1002981 253.853578,33.3802937 L253.853583,33.3802937 Z M223.826246,35.693416 L228.130928,35.693416 C229.909707,35.693416 231.233114,36.0578228 232.101149,36.7858082 C233.123379,37.6545248 233.634771,38.7747629 233.634771,40.1469921 C233.634771,41.5477492 233.121715,42.6820676 232.097817,43.5503767 C231.298004,44.2231751 229.986245,44.5588235 228.162544,44.5588235 L220.775088,44.5588235 C219.03458,44.5588235 217.842072,44.4258211 217.196449,44.1598119 C215.933499,43.6418515 215.098743,42.7947447 214.692186,41.6176011 C214.439267,40.8613224 214.313356,39.6218919 214.313356,37.8989021 L214.313356,22.3115167 C214.313356,21.0085193 214.35551,20.1337126 214.439267,19.684984 C214.593457,18.7749081 214.965631,18.0045714 215.555229,17.3741421 C216.22803,16.6593909 217.084413,16.2045723 218.122732,16.0078081 C218.613593,15.9245404 219.609753,15.8823529 221.111209,15.8823529 L226.773128,15.8823529 C228.316179,15.8823529 229.21472,15.8963933 229.467088,15.9245626 C230.477674,16.022504 231.30466,16.3166514 231.950279,16.8065134 C233.100633,17.6752344 233.67637,18.8095351 233.67637,20.2098583 C233.67637,21.7222428 233.172184,22.8781355 232.164376,23.6765972 C231.268057,24.3909585 230.043934,24.7484471 228.488672,24.7484471 L223.826241,24.7484471 L223.826241,26.7017473 L227.541876,26.7017473 C228.632328,26.7017473 229.535861,26.988755 230.249147,27.5635456 C231.004033,28.1792524 231.382862,29.0265985 231.382862,30.1047067 C231.382862,32.3878133 229.989569,33.5296966 227.205204,33.5296966 L223.826241,33.5296966 L223.826241,35.6934382 L223.826246,35.693416 Z M195.745434,24.6337484 L193.244994,24.6337484 C191.858014,24.6337484 190.710226,24.2579243 189.799415,23.506056 C188.832682,22.6987057 188.349315,21.619397 188.349315,20.2685086 C188.349315,19.4611583 188.577433,18.6849615 189.032008,17.9395352 C189.487691,17.1949852 190.075699,16.6656523 190.797155,16.3521353 C191.518606,16.0388913 193.230045,15.8823529 195.933686,15.8823529 L205.473113,15.8823529 C207.811328,15.8823529 209.324547,16.0216655 210.010563,16.3001187 C210.766896,16.6064803 211.380378,17.1326253 211.849345,17.8765676 C212.31832,18.6221612 212.553082,19.405236 212.553082,20.2265669 C212.553082,21.521533 212.034833,22.6496658 210.998336,23.6107451 C210.255845,24.2929881 209.044937,24.6337484 207.36395,24.6337484 L205.199597,24.6337484 L205.199597,38.8364118 C205.199597,40.3818965 204.933271,41.5788357 204.401184,42.4281057 C203.504769,43.8488749 202.208593,44.5588235 200.514872,44.5588235 C198.820044,44.5588235 197.517224,43.911226 196.606413,42.6162379 C196.031684,41.8088876 195.745429,40.5839961 195.745429,38.9409336 L195.745429,24.6337484 L195.745434,24.6337484 Z M184.76282,33.3802937 L186.986103,36.9252681 C187.601348,37.9124176 187.909247,38.9279313 187.909247,39.9702351 C187.909247,41.2916564 187.450992,42.3861555 186.535034,43.2550072 C185.619073,44.1240745 184.497481,44.5588235 183.169703,44.5588235 C181.462717,44.5588235 180.169763,43.8357455 179.288083,42.3891541 L175.343995,35.9662541 L175.343995,39.8246768 C175.343995,41.1456673 174.907851,42.2648503 174.033905,43.1820104 C173.159407,44.0998126 172.058268,44.5588235 170.729937,44.5588235 C169.107526,44.5588235 167.87759,43.9817347 167.038469,42.8273415 C166.283371,41.8129271 165.905822,40.4779809 165.905822,38.8231188 L165.905822,21.2839618 C165.905822,17.6831999 167.856584,15.8823529 171.758108,15.8823529 L177.757434,15.8823529 C179.728649,15.8823529 181.560563,16.4491663 183.252624,17.5822918 C184.945238,18.7158614 186.182361,20.1858442 186.96565,21.9935591 C187.55215,23.3559856 187.846782,24.7250602 187.846782,26.1012225 C187.846782,28.6736098 186.818611,31.1002981 184.76282,33.3802937 L184.76282,33.3802937 Z M145.465599,40.6275754 C145.020081,41.6923543 144.561928,42.4842302 144.089491,43.0027733 C143.144619,44.0398505 141.998133,44.5588235 140.650042,44.5588235 C138.996516,44.5588235 137.71105,43.886193 136.794194,42.5400678 C136.25254,41.7414814 135.981164,40.8450796 135.981164,39.8495503 C135.981164,39.0226108 136.175632,38.1879059 136.565117,37.3477716 L145.465599,18.2373191 C146.326971,16.373945 147.765704,15.4411765 149.78015,15.4411765 C151.823706,15.4411765 153.289361,16.4009818 154.17875,18.3217004 L163.163826,37.5786922 C163.525295,38.3501842 163.705479,39.1137513 163.705479,39.8705415 C163.705479,40.9915923 163.343462,41.9871171 162.621074,42.8556046 C161.676201,43.9915877 160.467095,44.5588235 158.994302,44.5588235 C157.785195,44.5588235 156.777698,44.1800916 155.97126,43.4230576 C155.373574,42.8636181 154.776436,41.9308496 154.17875,40.6275754 L145.465599,40.6275754 L145.465599,40.6275754 Z M122.693725,24.6337484 L120.193954,24.6337484 C118.807037,24.6337484 117.658748,24.2579243 116.748532,23.506056 C115.781843,22.6987057 115.297945,21.619397 115.297945,20.2685086 C115.297945,19.4611583 115.526606,18.6849615 115.981161,17.9395352 C116.436269,17.1949852 117.024808,16.6656523 117.746226,16.3521353 C118.467644,16.0388913 120.179559,15.8823529 122.883077,15.8823529 L132.421518,15.8823529 C134.759621,15.8823529 136.273325,16.0216655 136.959309,16.3001187 C137.715608,16.6064803 138.328508,17.1326253 138.796904,17.8765676 C139.266961,18.6221612 139.501712,19.405236 139.501712,20.2265669 C139.501712,21.521533 138.982934,22.6496658 137.946484,23.6107451 C137.20458,24.2929881 135.99262,24.6337484 134.312264,24.6337484 L132.14801,24.6337484 L132.14801,38.8364118 C132.14801,40.3818965 131.882254,41.5788357 131.349634,42.4281057 C130.452706,43.8488749 129.157697,44.5588235 127.4635,44.5588235 C125.768195,44.5588235 124.465988,43.911226 123.555219,42.6162379 C122.981074,41.8088876 122.693725,40.5839961 122.693725,38.9409336 L122.693725,24.6337484 L122.693725,24.6337484 Z M97.6070809,33.4711015 C98.6593035,33.4711015 99.7808242,33.9299631 100.973306,34.8471941 C102.459058,36.0013806 103.476354,36.5769882 104.024086,36.5769882 C104.836815,36.5769882 105.243179,36.1605976 105.243179,35.3268759 C105.243179,34.8682341 105.005348,34.4793664 104.528577,34.1589544 C104.275777,33.9922127 102.858769,33.4582455 100.278662,32.5536551 C96.057575,31.0807576 93.9470316,28.3563238 93.9470316,24.3812811 C93.9470316,21.3799437 95.0618997,19.0099848 97.2916314,17.2727144 C99.2408533,15.7582293 101.653536,15 104.528572,15 C107.010558,15 109.170442,15.5875846 111.007673,16.7615496 C112.844905,17.9359013 113.763521,19.4478021 113.763521,21.2962717 C113.763521,22.4085936 113.416476,23.336149 112.722386,24.0793291 C112.028296,24.8227245 111.126866,25.194231 110.018651,25.194231 C108.854442,25.194231 107.564389,24.6457067 106.147931,23.5479462 C105.2648,22.8671784 104.598429,22.5263857 104.149927,22.5263857 C103.378224,22.5263857 102.992372,22.9015183 102.992372,23.6516164 C102.992372,24.3608961 103.945918,25.007324 105.853552,25.5906276 C108.490207,26.4108296 110.530348,27.4115699 111.975075,28.5923475 C113.896569,30.1772661 114.857877,32.4013034 114.857877,35.2641912 C114.857877,38.3782091 113.77738,40.8097274 111.617492,42.5609526 C109.612282,44.1866238 107.003901,45 103.791795,45 C100.580243,45 97.9225259,44.1527146 95.8191851,42.4562188 C94.1366313,41.1086819 93.2945205,39.5317231 93.2945205,37.7240324 C93.2945205,36.5149628 93.7080917,35.5077966 94.5363428,34.7014924 C95.3629263,33.8956276 96.3874341,33.4850563 97.6070809,33.4711015 L97.6070809,33.4711015 Z" id="path42090" sketch:type="MSShapeGroup"></path>
            </g>
        </g>
    </g>
</svg>