<?xml version="1.0" encoding="UTF-8" standalone="no"?>
<svg width="158px" height="60px" viewBox="0 0 158 60" version="1.1" xmlns="http://www.w3.org/2000/svg" xmlns:xlink="http://www.w3.org/1999/xlink" xmlns:sketch="http://www.bohemiancoding.com/sketch/ns">
    <!-- Generator: Sketch 3.0.1 (7597) - http://www.bohemiancoding.com/sketch -->
    <title>paypal</title>
    <description>Created with Sketch.</description>
    <defs></defs>
    <g id="Page-1" stroke="none" stroke-width="1" fill="none" fill-rule="evenodd" sketch:type="MSPage">
        <g id="Monocolor-Original" sketch:type="MSArtboardGroup" transform="translate(-1225.000000, -355.000000)" fill="#FFFFFF">
            <g id="paypal" sketch:type="MSLayerGroup" transform="translate(1225.000000, 355.000000)">
                <path d="M121.839388,25.8329953 C121.262919,25.5246238 120.653644,25.2606842 120.015467,25.0358714 C119.157795,24.7420895 118.344647,24.5882353 117.592427,24.5882353 C116.437928,24.5882353 115.550573,24.7268367 114.950671,25.0232713 C114.349989,25.3044531 114.035196,25.7932055 114.045351,26.4928441 C114.045351,27.3005787 114.264846,27.9272693 114.719459,28.4186743 C115.177197,28.8915107 115.857554,29.2721672 116.701166,29.5560016 C117.540091,29.7973936 118.571954,29.996343 119.763165,30.1389234 C120.822367,30.2523245 122.916555,30.4572424 123.18448,30.4585687 C123.452405,30.4605582 123.630501,30.5858963 123.510989,29.9797638 C123.457873,29.7164875 122.853284,27.6089502 122.575986,26.6506773 C122.49553,26.363527 122.045604,25.9450702 121.839388,25.8329953 L121.839388,25.8329953 Z M129.396841,42.0440942 C127.750858,42.95251 125.176186,43.4117647 121.653141,43.4117647 C119.910936,43.4117647 118.159983,43.2733394 116.403199,43.0036986 C115.113676,42.8083171 114.981006,42.7758736 114.179883,42.603563 C112.531713,42.2488483 112.277307,40.6165836 112.277307,40.6165836 L111.748085,38.4637823 C111.447755,37.0867393 112.24086,37.1436955 112.594403,37.2503983 C113.313883,37.4652459 113.703874,37.6786515 115.171992,38.0074115 C116.575233,38.3224732 118.057929,38.5582287 119.241025,38.5488562 C120.975941,38.5488562 122.295351,38.3606843 123.172285,37.9987599 C124.049948,37.6202533 124.484406,36.9757107 124.484406,36.0535965 C124.487322,35.8344232 124.493154,35.6275063 124.412969,35.4465441 C124.340802,35.2778383 124.2023,35.1149002 123.787524,35.0593859 C121.31126,34.913751 119.534065,34.6902518 117.39385,34.3816788 C115.282064,34.0875251 113.434161,33.5835707 111.889503,32.8856766 C110.242791,32.1632697 109.010855,31.1964557 108.161621,29.9715363 C107.334985,28.7408492 106.91948,27.2506146 106.917293,25.495065 C106.917293,23.8361247 107.52014,22.4828735 108.68647,21.4324276 C109.86665,20.39568 111.401831,19.8823529 113.259211,19.8823529 C114.419709,19.8902836 115.327989,19.9731945 115.978946,20.1339697 C116.623344,20.2947449 117.326057,20.5232908 118.068135,20.8412363 C118.62287,21.0705032 119.221343,21.402147 119.853348,21.8181438 C120.486082,22.2355825 120.924185,22.5318991 121.48621,22.8959864 L121.506621,22.8613801 L121.348437,22.1714166 C121.347708,22.1649279 121.338232,22.1613231 121.338232,22.1548344 L121.343334,22.1418571 C121.162553,21.3105845 121.66772,20.6191791 122.500188,20.5377101 L122.510393,20.5232908 L122.584018,20.5232908 L122.586933,20.5196859 C123.139482,20.5196859 125.036226,20.5204069 125.922637,20.5232908 L126.54152,20.5232908 C126.582342,20.5232908 126.586716,20.5355472 126.602753,20.5449197 C127.452715,20.6480177 128.267688,21.3329344 128.459404,22.1548344 L131.62526,35.6693222 C131.698156,35.9872678 131.755743,36.3542389 131.790004,36.7767244 C131.829368,37.2035356 131.876021,37.5546455 131.862171,37.8084252 C131.86946,39.7211452 131.03845,41.1349574 129.396841,42.0440942 L129.396841,42.0440942 Z" id="path2997" sketch:type="MSShapeGroup" transform="translate(119.390977, 31.647059) scale(1, -1) translate(-119.390977, -31.647059) "></path>
                <path d="M73.7608939,53.999868 C72.8345629,53.999868 71.6195714,53.2571673 71.0444318,52.3595873 C71.0444318,52.3595873 64.8480479,41.8349927 64.2394614,40.7832536 C63.9086289,40.2177638 63.5734338,40.577228 63.5174468,40.7875758 C63.4723663,41.0433069 61.597164,52.2904318 61.597164,52.2904318 C61.3863037,53.1959359 60.4316156,53.9732143 59.2377101,53.9696125 L55.3738772,53.9638495 C54.4424564,53.9638495 53.8615,53.2247507 54.0687247,52.3314929 C54.0687247,52.3314929 57.0222229,35.7457115 57.5980896,31.8449121 C57.8852959,29.6874063 57.5682783,29.3048902 57.5682783,29.3048902 L53.7393464,22.6904599 C53.1787489,21.7936002 53.485587,21.0588235 54.4126451,21.0588235 L58.8901542,21.0624254 C59.8172123,21.0624254 61.0452917,21.7936002 61.597164,22.6919006 L78.8222678,51.5549348 C78.8222678,51.5549348 80.4698865,54.0207587 78.9502382,53.999868 C77.9141144,53.9854606 73.7608939,53.999868 73.7608939,53.999868" id="path3009" sketch:type="MSShapeGroup" transform="translate(66.526316, 37.529412) scale(1, -1) translate(-66.526316, -37.529412) "></path>
                <path d="M28.8628066,39.1294187 C28.3178128,40.1653427 27.5006908,41.0065819 26.4579015,41.6416421 C25.3760261,42.2917886 24.1178942,42.7400664 22.6510569,43.0101825 C21.17537,43.2680859 19.4518915,43.3945233 17.4747217,43.4117647 L8.31971031,43.4052992 C7.3683679,43.3945233 6.43619983,42.6675086 6.21643236,41.7767002 L0.0430313249,15.6336277 C-0.1693614,14.7392273 0.425043239,14 1.37269828,14 L5.75846055,14 C6.70685306,14 7.64639588,14.7198307 7.85952608,15.6336277 L9.37061182,21.9777643 C9.5726799,22.8649807 10.5100103,23.5991793 11.4606152,23.5991793 L12.7143223,23.5991793 C18.0779761,23.6042081 22.2380711,24.6731782 25.2277936,26.8125552 C28.2130914,28.9476219 29.7064777,31.7780939 29.699103,35.278109 C29.7064777,36.8154719 29.4328746,38.1021154 28.8628066,39.1294187 M19.4972879,30.6161716 C18.2362848,29.7354741 16.4886035,29.2941176 14.2197826,29.2941176 L13.1943824,29.2941176 C12.2906518,29.2941176 11.7202818,29.9786567 11.9193135,30.8197195 L13.1782067,36.0017946 C13.3702055,36.8368114 14.2718262,37.5294118 15.1755568,37.5213505 L16.5441636,37.5294118 C18.142747,37.5294118 19.358036,37.2680912 20.1780748,36.748137 C20.9861577,36.2422902 21.3968804,35.4435493 21.3828145,34.3693805 C21.4067265,32.7517454 20.7646206,31.4995561 19.4972879,30.6161716" id="path3013" sketch:type="MSShapeGroup" transform="translate(14.849624, 28.705882) scale(1, -1) translate(-14.849624, -28.705882) "></path>
                <path d="M108.457096,39.1332102 C107.910731,40.1692598 107.085653,41.0034163 106.042324,41.6529232 C104.972452,42.300993 103.701287,42.7529176 102.229567,43.0166001 C100.774068,43.2651946 99.0435436,43.4074538 97.0719106,43.4117647 L87.8979925,43.4074538 C86.9534667,43.3916472 86.026637,42.6688553 85.8083859,41.7786573 L79.6405813,15.6245111 C79.4156942,14.73575 80.0291567,13.9949961 80.9567237,14.0000255 L85.3586118,14.0079288 C86.2920775,14.0000255 87.2432393,14.73575 87.4637023,15.6245111 L88.9516437,21.9715724 C89.1603094,22.8610519 90.1092592,23.6061168 91.0582089,23.5931841 L92.3094659,23.5931841 C97.6787371,23.5931841 101.841729,24.6680317 104.822773,26.8076682 C107.796444,28.9580819 109.293233,31.7788384 109.293233,35.2871813 C109.283648,36.8189828 109.015995,38.1093747 108.457096,39.1332102 M99.0945307,30.6025508 C97.8425439,29.7312306 96.0854064,29.2942259 93.8245234,29.2942259 L92.7847139,29.2942259 C91.8854192,29.2841412 91.3043905,29.9799872 91.517973,30.81433 L92.771365,36.0086353 C92.9582496,36.8302042 93.8708932,37.5294118 94.7575416,37.5226886 L96.1310737,37.5294118 C97.7343475,37.5226886 98.9336413,37.2658643 99.761976,36.7555773 C100.576259,36.2392394 100.971106,35.4385123 100.977429,34.3715484 C100.980942,32.7452186 100.352138,31.4940404 99.0945307,30.6025508" id="path3017" sketch:type="MSShapeGroup" transform="translate(94.443609, 28.705882) scale(1, -1) translate(-94.443609, -28.705882) "></path>
                <path d="M42.2463818,25.8323154 C41.6699567,25.523948 41.061508,25.2613383 40.4233788,25.0358654 C39.5657708,24.7434137 38.748778,24.5882353 37.9989567,24.5882353 C36.8476686,24.5882353 35.9580369,24.727498 35.3573989,25.0226023 C34.7575418,25.3044434 34.441211,25.7931892 34.4513648,26.4934816 C34.4513648,27.2992158 34.673187,27.9278874 35.126985,28.4186226 C35.5854695,28.8921158 36.2626518,29.2734303 37.1062008,29.5565978 C37.9474065,29.7993128 38.9823161,29.9956068 40.1695331,30.1381853 C41.2286557,30.2515849 43.325031,30.4558369 43.5921548,30.4591527 C43.8577165,30.4598158 44.0365801,30.5864786 43.9170773,29.9803543 C43.8655271,29.7170815 43.2602027,27.6082463 42.982925,26.6506495 C42.8993512,26.3621768 42.4494584,25.9437255 42.2463818,25.8323154 L42.2463818,25.8323154 Z M49.8025909,42.0448152 C48.1566275,42.953231 45.5827139,43.4117647 42.0597107,43.4117647 C40.3167972,43.4117647 38.5665943,43.2747814 36.8091019,43.0044195 C35.517407,42.8104799 35.3876543,42.7773156 34.5858121,42.6050049 C32.9369329,42.2488483 32.6832592,40.6180256 32.6832592,40.6180256 L32.1540433,38.4637823 C31.8544459,37.0874603 32.6482697,37.1444165 33.0003513,37.2511193 C33.7183646,37.4659669 34.1105383,37.6786515 35.5786386,38.0088534 C36.9796756,38.3224732 38.4645417,38.5575078 39.6461656,38.5495772 C41.3825185,38.5495772 42.7004555,38.3621263 43.5773794,38.0002019 C44.4557611,37.6216953 44.8880269,36.9757107 44.8880269,36.0543175 C44.8938585,35.8351442 44.8982322,35.6275063 44.8202348,35.447986 C44.7466111,35.2778383 44.6066532,35.1156211 44.1918821,35.0608278 C41.7185633,34.91303 39.9421182,34.6902518 37.7982837,34.3816788 C35.6865228,34.0875251 33.8393699,33.5835707 32.2940012,32.8863976 C30.6473088,32.1639907 29.4168455,31.1957348 28.5690795,29.9715363 C27.7395373,28.7415701 27.3247662,27.2513356 27.3233083,25.495065 C27.3233083,23.8368456 27.9268768,22.4828735 29.0917349,21.4331485 C30.2726298,20.3964009 31.8063353,19.8823529 33.6636935,19.8823529 C34.8249069,19.8902836 35.7324465,19.9746365 36.3855834,20.1339697 C37.0292441,20.2961868 37.7326784,20.5232908 38.4718312,20.8412363 C39.028747,21.0705032 39.625755,21.403589 40.2584815,21.8188648 C40.88975,22.2355825 41.3300343,22.5318991 41.8942396,22.8959864 L41.9117344,22.862101 L41.7535527,22.1728586 C41.7520949,22.1663699 41.7433475,22.1620441 41.7433475,22.1541135 L41.749908,22.143299 C41.569129,21.3098635 42.0728317,20.6191791 42.9060187,20.539152 L42.916224,20.5232908 L42.9891187,20.5232908 L42.9913056,20.518244 C43.5453057,20.518244 45.442756,20.5211279 46.3269693,20.5232908 L46.9465747,20.5232908 C46.9881247,20.5232908 46.9939562,20.5369891 47.0070773,20.5456407 C47.8592169,20.6516225 48.6712644,21.3350973 48.8651644,22.1541135 L52.0309834,35.6700432 C52.1024202,35.9872678 52.160736,36.3542389 52.1928097,36.7760034 C52.2350887,37.2049775 52.2810124,37.5546455 52.2686203,37.8077042 C52.2759097,39.7218661 51.4434517,41.1356784 49.8025909,42.0448152 L49.8025909,42.0448152 Z" id="path3021" sketch:type="MSShapeGroup" transform="translate(39.796992, 31.647059) scale(1, -1) translate(-39.796992, -31.647059) "></path>
                <path d="M143.591617,43.4117647 L139.737403,43.4117647 C139.73523,43.4117647 139.733057,43.4110403 139.731608,43.4110403 L139.729435,43.4117647 C138.847189,43.4117647 137.951904,42.7358903 137.702007,41.8760158 C137.691866,41.8412441 137.674482,41.8079213 137.666514,41.7717008 C137.666514,41.7717008 137.574523,41.3522675 137.415168,40.6271332 L132.120965,16.6274346 C131.998551,16.0848516 131.916701,15.7313396 131.892073,15.6393395 L131.902214,15.6263001 C131.718956,14.7874335 132.223097,14.0934489 133.051018,14.015937 L133.061883,14 L137.062414,14 C137.938866,14 138.828356,14.6693547 139.086221,15.5183631 C139.098535,15.5596544 139.118092,15.5980482 139.127508,15.6393395 L144.902673,41.7731496 L144.893981,41.7760472 C145.090277,42.669969 144.514427,43.4117647 143.591617,43.4117647" id="path3025" sketch:type="MSShapeGroup" transform="translate(138.398496, 28.705882) scale(1, -1) translate(-138.398496, -28.705882) "></path>
                <path d="M150.87218,14.1290603 C150.754101,14.0917417 150.624931,14.0606428 150.483367,14.0365412 C150.342454,14.013217 150.215894,14 150.106948,14 C149.719439,14 149.427176,14.1243955 149.226898,14.3708541 C149.025967,14.6180902 148.926154,15.0146009 148.926154,15.5596088 L148.926154,17.95189 L148.496241,17.95189 L148.496241,18.5894171 L148.926154,18.5894171 L148.926154,19.8823529 L149.560912,19.8823529 L149.560912,18.5894171 L150.87218,18.5894171 L150.87218,17.95189 L149.560912,17.95189 L149.560912,15.9016964 C149.560912,15.6661224 149.566784,15.4810841 149.574612,15.3481364 C149.584398,15.2144112 149.615711,15.0907932 149.669858,14.9757273 C149.718786,14.8676587 149.786633,14.7899115 149.874051,14.7401533 C149.961469,14.6896176 150.0939,14.6647385 150.271998,14.6647385 C150.375073,14.6647385 150.483367,14.6833979 150.596879,14.719939 C150.708435,14.7557028 150.789982,14.7860242 150.839562,14.8101258 L150.87218,14.8101258 L150.87218,14.1290603" id="path3029" sketch:type="MSShapeGroup" transform="translate(149.684211, 16.941176) scale(1, -1) translate(-149.684211, -16.941176) "></path>
                <path d="M158,15.1764706 L157.315877,15.1764706 L157.315877,17.7837303 C157.315877,17.9799076 157.307439,18.1705477 157.291268,18.3532774 C157.275096,18.5367981 157.240644,18.682349 157.190724,18.7923032 C157.134475,18.9093768 157.055024,18.998764 156.950261,19.0580918 C156.845498,19.1182107 156.695736,19.1482701 156.498866,19.1482701 C156.306215,19.1482701 156.115673,19.0944795 155.923021,18.9861074 C155.731073,18.8785263 155.539828,18.7416768 155.34788,18.5747679 C155.354911,18.5114849 155.360536,18.4387094 155.365457,18.3548594 C155.371082,18.2718005 155.373192,18.1895326 155.373192,18.1072647 L155.373192,15.1764706 L154.689068,15.1764706 L154.689068,17.7837303 C154.689068,17.9862359 154.679928,18.177667 154.664459,18.3596057 C154.648991,18.5415443 154.614539,18.6863042 154.564618,18.7954674 C154.507667,18.9133319 154.427512,19.0011371 154.322749,19.0604649 C154.218689,19.1190017 154.068225,19.1482701 153.871355,19.1482701 C153.684328,19.1482701 153.498005,19.0960616 153.308869,18.9924357 C153.120436,18.8888098 152.93341,18.7567065 152.74568,18.5953349 L152.74568,15.1764706 L152.06015,15.1764706 L152.06015,19.7549959 L152.74568,19.7549959 L152.74568,19.2471498 C152.960128,19.4464913 153.173169,19.6023257 153.385507,19.714653 C153.599252,19.8253982 153.823543,19.8823529 154.064709,19.8823529 C154.34103,19.8823529 154.576571,19.8166968 154.769926,19.6861756 C154.962577,19.5540724 155.106714,19.3729248 155.201633,19.1403597 C155.477954,19.4029842 155.731073,19.5928332 155.959583,19.7083247 C156.18739,19.8238162 156.431368,19.8823529 156.691518,19.8823529 C157.138694,19.8823529 157.468451,19.7296827 157.680789,19.4259243 C157.893128,19.1205838 158,18.6950056 158,18.1483986 L158,15.1764706" id="path3033" sketch:type="MSShapeGroup" transform="translate(155.030075, 17.529412) scale(1, -1) translate(-155.030075, -17.529412) "></path>
            </g>
        </g>
    </g>
</svg>