<?xml version="1.0" encoding="UTF-8" standalone="no"?>
<svg width="288px" height="60px" viewBox="0 0 288 60" version="1.1" xmlns="http://www.w3.org/2000/svg" xmlns:xlink="http://www.w3.org/1999/xlink" xmlns:sketch="http://www.bohemiancoding.com/sketch/ns">
    <!-- Generator: Sketch 3.0.1 (7597) - http://www.bohemiancoding.com/sketch -->
    <title>thenewyorktimes</title>
    <description>Created with Sketch.</description>
    <defs></defs>
    <g id="Page-1" stroke="none" stroke-width="1" fill="none" fill-rule="evenodd" sketch:type="MSPage">
        <g id="Monocolor-Original" sketch:type="MSArtboardGroup" transform="translate(-609.000000, -189.000000)" fill="#FFFFFF">
            <g id="thenewyorktimes" sketch:type="MSLayerGroup" transform="translate(609.000000, 189.000000)">
                <path d="M18.2446153,13.0353228 C19.0726937,13.1018274 20.3665662,13.4913545 21.3439375,14.3084114 C22.3830166,15.2698783 22.6179043,16.7329801 22.25562,18.053572 C21.9311566,19.2411546 21.5688723,19.8491969 20.3048584,20.670054 C19.0289011,21.4928113 17.486207,21.4263066 17.486207,21.4263066 L17.486207,26.5452628 L20.0938577,28.559403 L17.486207,30.571643 L17.486207,37.5451282 C17.486207,37.5451282 20.0998294,36.1162288 21.7201558,32.9088056 C21.7201558,32.9088056 21.7898259,32.7377937 21.9391189,32.4090708 C22.0844307,33.2660304 22.0008266,34.998951 20.9856344,37.2297062 C20.2192638,38.9094231 18.8278532,40.5283357 17.076149,41.4479997 C13.9768268,43.089714 11.6538281,43.2455248 9.16163067,42.7552907 C6.24743177,42.1795506 3.59797909,40.617642 1.79252936,37.8852518 C0.520553205,35.9718187 -0.046760104,33.733463 0.00300422138,31.3278956 C0.104523445,26.6079672 3.78509295,22.5359838 8.03297577,21.0177782 C8.54853418,20.8296651 8.7535632,20.7137571 9.48808464,20.6472524 C9.1516778,20.8657676 8.76152549,21.1526876 8.28179739,21.4529085 C6.91228316,22.3060679 5.73983565,24.018087 5.24020183,25.3348786 L13.4851553,21.819634 L13.4851553,32.8232996 L6.83465081,36.0079212 C7.5950497,37.0054906 9.89615211,38.5274965 11.8628382,38.7365111 C15.2149632,39.0918358 17.1776682,37.6971388 17.1776682,37.6971388 L17.1776682,30.571643 L14.5839516,28.559403 L17.1816493,26.5528633 L17.1816493,21.4263066 C15.7643614,21.2628953 14.0445063,20.8220646 13.0372763,20.5807478 C11.5602711,20.2349237 6.63161236,18.9105316 5.85528889,18.8022241 C5.08095598,18.6920164 4.12548094,18.7243186 3.54821476,19.218353 C2.97094859,19.7199879 2.61264544,20.5959489 2.8594765,21.3826036 C2.99682604,21.8272345 3.31929887,22.0875526 3.56413935,22.3440705 C3.56413935,22.3440705 3.27550626,22.3212689 2.75994785,22.0248483 C1.82835968,21.4928113 1.12170626,20.4515388 1.03611162,19.1670494 C0.926630101,17.4778319 1.6571704,15.9634265 3.11227927,14.9392553 C4.37629314,14.1602011 5.80751513,13.6661667 7.47362475,13.8922824 C9.90013325,14.2191052 13.1666636,15.5301964 16.0729002,16.1971428 C17.1975739,16.4574609 18.0714355,16.5429669 18.8636835,16.1040363 C19.2319396,15.8532189 19.8828569,15.1957731 19.3493834,14.3274127 C18.7323057,13.3032414 17.5459242,13.3336436 16.5386943,13.1512309 C17.4065841,12.9764187 17.593698,12.9764187 18.2446153,13.0353228 L18.2446153,13.0353228 Z M8.83018868,34.7824143 L8.83018868,23.6666667 L5.47814776,25.1609538 C5.47814776,25.1609538 4.62120507,27.0665673 4.77266471,29.8345753 C4.89024522,31.9965226 6.1059081,34.5876801 7.03658771,35.6666667 L8.83018868,34.7824143 L8.83018868,34.7824143 Z" id="Fill-1" sketch:type="MSShapeGroup"></path>
                <path d="M48.5642075,23.6666667 C48.5642075,23.6666667 46.1802321,25.1653898 44.5809037,26.1593414 C42.977821,27.1454973 40.830366,28.2329973 40.830366,28.2329973 L40.830366,38.6324597 L39.3962264,39.8290995 L39.5858182,40.0571237 L40.9824148,38.8916667 L45.3655507,43 L52.9811321,36.7381048 L52.7971718,36.5100806 L48.5923647,39.9382392 L45.1327846,36.578293 L45.1327846,35.3212366 L52.080102,30.0182124 L48.5642075,23.6666667 L48.5642075,23.6666667 Z M48.2264151,32.8601541 L44.8301887,35.6666667 L44.8301887,26.3333333 L48.2264151,32.8601541 L48.2264151,32.8601541 Z" id="Fill-4" sketch:type="MSShapeGroup"></path>
                <path d="M28.6490566,46.8227232 C29.6509434,47.0742937 31.4264151,47.2123738 33.5641509,46.136106 C35.9301887,44.9501307 37.1188679,42.4306427 37.1037736,39.8449518 L37.2037736,36.1886677 L37.2037736,28.1856992 L38.7169811,27.0262051 L38.5396226,26.8048987 L37.0528302,27.9265627 L33.6150943,24.0962599 L29.2075472,27.8944071 L29.2075472,15 L23.7,19.263458 C23.945283,19.4223447 24.7245283,19.5660993 24.7490566,20.6631736 L24.7490566,38.7289624 L22.4150943,40.4653663 L22.5735849,40.7055878 L23.7018868,39.8638669 L26.8396226,42.7900291 L31.7735849,38.8481273 L31.5962264,38.6249295 L30.4358491,39.5460936 L29.2075472,38.3222882 L29.2207547,28.259468 L30.6584906,27.0337711 L32.8018868,29.7045798 C32.8018868,29.7045798 32.8,36.2170403 32.8056604,38.3828165 C32.7886792,40.6866727 32.7830189,43.5655472 31.5716981,44.9501307 C30.3622642,46.3498463 29.8792453,46.4576623 28.6490566,46.8227232" id="Fill-5" sketch:type="MSShapeGroup"></path>
                <path d="M63.8954973,46.9115529 C61.909909,46.6775916 61.0784676,45.4536451 61.1012468,44.4868627 C61.1145347,43.8719891 61.668829,42.6557769 62.8723308,42.4894903 C64.0796292,42.3154695 65.3135034,42.8936054 66.351856,44.1426882 L70.9361731,38.9839374 L70.7178722,38.7809131 L69.4858964,40.1846811 C68.2349378,38.7345075 66.458159,37.821865 64.6927698,37.5569666 L64.6927698,21.8351515 L76.5987063,43.9280625 C76.5987063,43.9280625 76.7126024,44.1813595 77.2023556,44.1813595 C77.6218728,44.1813595 77.5193663,43.8333178 77.5193663,43.8333178 L77.517468,21.6050572 C78.4893812,21.5605853 79.9624371,21.0191871 80.6818807,20.268964 C82.9749884,17.8713437 82.037244,15.2494299 81.7828761,15 C81.6462008,16.1446703 80.7805906,17.2932078 79.3398053,17.3048092 C77.4491304,17.3048092 76.29878,15.8836391 76.29878,15.8836391 L71.7144629,21.2009422 L71.934662,21.4059001 L73.2482634,19.8764503 C74.8504016,21.374963 76.0197346,21.521914 77.2308296,21.6050572 L77.2289313,34.4980671 L68.3962906,18.1613784 C67.599018,16.8098166 66.3841265,15.6226079 64.4725707,15.6090729 C62.2800712,15.5936044 60.7102036,17.5639069 60.5203768,19.2596432 C60.3115674,21.1777394 60.5450543,21.6166586 60.5450543,21.6166586 C60.5450543,21.6166586 60.8677599,19.4858703 62.1623786,19.5013388 C63.3279151,19.5206744 63.9353609,20.611205 64.3985383,21.4310364 L64.3985383,26.1682701 C63.2007312,26.2475463 60.0742839,26.3906301 59.8825588,29.7028265 C59.8673727,30.9325737 60.6209851,32.224195 61.2758875,32.659247 C62.122515,33.2257815 62.7850105,33.2180472 62.7850105,33.2180472 C62.7850105,33.2180472 61.7694372,32.6708484 62.07316,31.5783843 C62.3446123,30.6077348 64.3320989,30.4491825 64.4023348,30.8571647 L64.4023348,37.5376309 C63.447506,37.524096 60.3874981,37.6285085 59.0074573,40.2987614 C58.1779142,41.9190887 58.2253709,43.7250382 59.1137603,44.9934567 C59.8388987,46.031781 61.3309373,47.3562728 63.8954973,46.9115529" id="Fill-6" sketch:type="MSShapeGroup"></path>
                <path d="M89.3177035,23.6666667 C89.3177035,23.6666667 86.9368244,25.1653898 85.3332986,26.1593414 C83.7335281,27.1454973 81.5817241,28.2329973 81.5817241,28.2329973 L81.5817241,38.6324597 L80.1509434,39.8290995 L80.3387099,40.0571237 L81.7375702,38.8916667 L86.1200402,43 L93.7358491,36.7381048 L93.5555932,36.5100806 L89.3458685,39.9382392 L85.8872097,36.578293 L85.8872097,35.3212366 L92.8364476,30.0182124 L89.3177035,23.6666667 L89.3177035,23.6666667 Z M88.9811321,32.8601541 L85.5849057,35.6666667 L85.5849057,26.3333333 L88.9811321,32.8601541 L88.9811321,32.8601541 Z" id="Fill-7" sketch:type="MSShapeGroup"></path>
                <path d="M100.089288,42.982837 L96.3197619,39.830557 L94.665264,41.0415054 L94.4984875,40.7993157 L96.1833085,39.5673902 L96.1833085,30.7551181 C96.2648015,27.1260867 92.8799981,28.0242863 93.0638312,24.1759493 C93.1415339,22.4863425 94.7713944,21.2048348 95.5920103,20.7795726 C96.4713769,20.3333333 97.4227606,20.3333333 97.4227606,20.3333333 C97.4227606,20.3333333 95.8800786,21.3039991 96.2553256,22.7018341 C96.8333575,24.8510292 100.487277,25.0474508 100.557399,27.9079589 L100.557399,37.9063885 L103.25425,40.0803747 L103.96305,39.5216221 L103.96305,28.6974592 L102.511337,27.2500421 L106.258121,23.9127825 L109.680828,26.9620842 L108.373149,28.3847103 L108.373149,37.9731337 L111.579805,40.6353133 L112.152151,40.2672612 L112.152151,28.7279713 L110.690962,27.3568344 L114.447222,23.9013405 L117.957108,26.8209658 L119.359546,25.5737843 L119.54717,25.7930899 L116.393579,28.5830389 L116.393579,37.9941107 L108.318189,43 L104.186682,39.7123226 L100.089288,42.982837" id="Fill-8" sketch:type="MSShapeGroup"></path>
                <path d="M269.320849,23.6666667 C269.320849,23.6666667 266.935885,25.1653898 265.335893,26.1593414 C263.730267,27.1454973 261.580044,28.2329973 261.580044,28.2329973 L261.580044,38.6324597 L260.150943,39.8290995 L260.340614,40.0571237 L261.735912,38.8916667 L266.120865,43 L273.735849,36.7381048 L273.555568,36.5100806 L269.349017,39.9382392 L265.886125,36.578293 L265.886125,35.3212366 L272.834445,30.0182124 L269.320849,23.6666667 L269.320849,23.6666667 Z M268.981132,32.8601541 L265.584906,35.6666667 L265.584906,26.3333333 L268.981132,32.8601541 L268.981132,32.8601541 Z" id="Fill-9" sketch:type="MSShapeGroup"></path>
                <path d="M232.301887,28.0110818 L232.489898,28.2364349 L233.940811,26.9470234 L236.092493,29.465099 L236.092493,38.1010203 L235.046088,39.0886546 L238.401801,43 L241.84867,39.5001689 L240.43194,37.9893236 L240.43194,27.5368606 L241.288435,26.8333671 L243.66611,29.7022096 L243.66611,38.3146159 L242.775431,39.2336644 L245.935536,42.9078992 L249.312138,39.4119873 L248.072025,38.0696669 L248.035942,27.578012 L248.951309,26.8137712 L251.433435,29.6336239 L251.433435,38.2068383 L250.616821,39.0416244 L254.10737,42.9686465 L258.792453,38.5086154 L258.591148,38.2832624 L257.457385,39.3747551 L255.710211,37.3700926 L255.710211,27.5897696 L257.392815,26.2690047 L257.219997,26.031894 L255.535494,27.352659 L252.345003,23.6666667 L247.790958,27.3840124 L244.592871,23.7979593 L240.194552,27.352659 L236.975575,23.8155956 L232.301887,28.0110818" id="Fill-10" sketch:type="MSShapeGroup"></path>
                <path d="M223.471698,27.6792453 L223.656873,27.9079721 L224.849401,26.8018018 L226.723372,29.1620262 L226.723372,39.0978412 L225.399371,40.3262621 L225.588249,40.554989 L226.969655,39.2989631 L229.986157,43 L234.339623,38.863199 L234.160003,38.636444 L232.878591,39.8352881 L231.071283,37.6229475 L231.071283,27.9079721 L232.589718,26.5060343 L232.408247,26.2812511 L230.965733,27.5984022 L227.793684,23.6666667 L223.471698,27.6792453" id="Fill-11" sketch:type="MSShapeGroup"></path>
                <path d="M224.150943,19.6998548 L227.897264,16.3333333 L230.943396,19.6459241 L227.182268,23 L224.150943,19.6998548" id="Fill-12" sketch:type="MSShapeGroup"></path>
                <path d="M220.659332,13.0353219 C221.487394,13.1018248 222.781241,13.4913418 223.762575,14.3083775 C224.795662,15.2698196 225.032535,16.7328835 224.672249,18.0534413 C224.349782,19.2409932 223.987505,19.8490197 222.719535,20.6698556 C221.445593,21.4925916 219.900939,21.4260887 219.900939,21.4260887 L219.900939,26.5449125 L222.510529,28.5590005 L219.900939,30.5711885 L219.900939,37.5444933 C219.900939,37.5444933 222.518491,36.1156308 224.134804,32.9082906 C224.134804,32.9082906 224.204473,32.7372832 224.355754,32.4085688 C224.501063,33.2655062 224.419451,34.998382 223.404278,37.2290795 C222.633942,38.9087529 221.242559,40.5276237 219.492879,41.4472639 C216.393618,43.0927358 214.072656,43.2447425 211.580507,42.7545211 C208.662385,42.1787959 206.018956,40.6169276 204.20558,37.8846082 C202.9396,35.9712245 202.368317,33.7329267 202.41808,31.3274215 C202.519597,26.6076152 206.200094,22.5357372 210.449884,21.0175708 C210.967423,20.8294626 211.172448,20.7135575 211.904964,20.6470546 C211.566574,20.8655642 211.176429,21.1524767 210.698701,21.4526898 C209.331204,22.3058271 208.156789,24.017802 207.659156,25.3345595 L215.899966,21.8194059 L215.899966,32.8227869 L209.253573,36.0073261 C210.013957,37.0048697 212.313024,38.5268362 214.283652,38.7358454 C217.63173,39.0911609 219.594397,37.6964999 219.594397,37.6964999 L219.594397,30.5711885 L216.99675,28.5590005 L219.594397,26.5525128 L219.594397,21.4260887 C218.179127,21.2626815 216.461296,20.8218623 215.458067,20.5805517 C213.981091,20.2347366 209.042577,18.9103787 208.27224,18.802074 C207.499913,18.6918692 206.542466,18.7241706 205.963221,19.2181922 C205.387957,19.7198141 205.029661,20.5957524 205.272506,21.3823868 C205.415824,21.8270062 205.73431,22.0873176 205.979145,22.3438288 C205.979145,22.3438288 205.692508,22.3210278 205.178951,22.0246149 C204.24539,21.4925916 203.53676,20.4513461 203.453158,19.1668899 C203.343678,17.4777161 204.074204,15.9633499 205.527294,14.9392051 C206.795264,14.1601711 208.226458,13.6661495 209.890544,13.8922593 C212.317005,14.2228738 215.58148,15.5301309 218.48965,16.1970601 C219.618283,16.4573715 220.488146,16.5428752 221.282369,16.103956 C221.646637,15.8531451 222.299532,15.1957163 221.764079,14.3273784 C221.149004,13.3032336 219.958664,13.3336349 218.957426,13.151227 C219.819327,12.9764193 220.010418,12.9764193 220.659332,13.0353219 L220.659332,13.0353219 Z M211.245283,34.7824143 L211.245283,23.6666667 L207.895437,25.1609538 C207.895437,25.1609538 207.039564,27.0625931 207.186853,29.8345753 C207.312249,31.9965226 208.520423,34.5876801 209.44994,35.6666667 L211.245283,34.7824143 L211.245283,34.7824143 Z" id="Fill-14" sketch:type="MSShapeGroup"></path>
                <path d="M278.508321,43.6443225 C277.985507,43.7888439 275.736056,43.2681963 275.195879,41.0244094 C274.669207,38.8380604 276.247295,37.3576427 278.633719,35.0286252 L275.819012,32.5569391 L275.819012,27.8340547 C275.819012,27.8340547 277.887118,26.8353749 279.511507,25.8644878 C281.135896,24.8843364 282.793081,23.8319243 282.793081,23.8319243 C282.793081,23.8319243 284.00655,25.301225 285.378213,25.1807905 C287.517699,25.0010652 287.41931,23.3798318 287.351788,23 C287.722195,23.6207008 288.700301,25.4883616 284.932567,29.6572474 L288,32.0344387 L288,38.1728915 C288,38.1728915 284.438691,39.9497633 281.070303,42.3121319 C281.070303,42.3121319 279.191259,40.055375 277.555295,41.1300211 C276.455649,41.8563337 276.9611,43.0940296 278.508321,43.6443225 L278.508321,43.6443225 Z M275.773585,38.412026 C275.773585,38.412026 277.423063,35.7732826 280.25749,36.3406314 C282.977751,36.8889418 283.924528,39.6666667 283.924528,39.6666667 L283.924528,33.2659051 L282.025069,31.6666667 C279.940585,33.6942726 276.236147,36.6243059 275.773585,38.412026 L275.773585,38.412026 Z M279.849057,25.6666667 L279.849057,30.3177205 L281.565638,31.6666667 C281.565638,31.6666667 285.290406,28.9740437 286.641509,26.4798985 C286.641509,26.4798985 284.967697,28.5314208 282.71845,27.9026151 C280.828849,27.3809524 279.849057,25.6666667 279.849057,25.6666667 L279.849057,25.6666667 Z" id="Fill-15" sketch:type="MSShapeGroup"></path>
                <path d="M162.787659,28.0189941 L164.180835,26.7388978 L164.377358,26.9619449 L163.025044,28.2148876 L163.025044,38.4285045 C163.025044,38.4285045 160.446889,39.788122 158.648992,40.8005618 C156.85304,41.807183 154.934504,43 154.934504,43 L150.206266,39.0317014 L148.955132,40.1100856 L148.754717,39.8909176 L150.068116,38.7504682 L150.068116,27.7649144 L150.087574,27.7649144 C150.087574,27.7649144 152.313543,26.7602327 154.197055,25.7031835 C155.87626,24.752809 157.759772,23.6666667 157.759772,23.6666667 L162.787659,28.0189941 L162.787659,28.0189941 Z M154.188679,36.7401547 L157.584906,40.3333333 L157.584906,29.3410689 L154.188679,25.6666667 L154.188679,36.7401547 L154.188679,36.7401547 Z" id="Fill-17" sketch:type="MSShapeGroup"></path>
                <path d="M171.513733,26.9133516 L174.368283,23.8271417 C174.368283,23.8271417 174.758886,24.1950602 175.127275,24.3829335 C175.338311,24.4886122 176.20097,24.9641664 176.993284,24.5003543 C177.424613,24.2557276 177.485703,24.1872322 177.955908,23.713635 C178.055872,26.1129332 176.963665,27.8037926 175.604884,28.5024463 C175.047673,28.7862132 173.424171,29.3322199 171.72477,27.1462361 L171.72477,38.2346729 L173.533392,39.9196612 L175.040268,38.6006343 L175.214281,38.8335189 L170.49002,43 L166.89499,39.5458717 L165.59915,40.8335864 L165.388113,40.5928738 L167.355939,38.7160981 L167.374451,29.1443466 L165.862021,27.0268583 L164.562478,28.2382495 L164.377358,28.017107 L168.953524,23.6666667 L171.513733,26.9133516" id="Fill-18" sketch:type="MSShapeGroup"></path>
                <path d="M184.754717,31.7038592 L190.228315,23.6859961 C190.228315,23.6859961 190.951352,24.5422915 192.209474,24.8786243 C193.916377,25.3270679 195.408479,23.6666667 195.408479,23.6666667 C195.122717,25.8103046 194.044875,28.2496834 191.816311,28.6188762 C189.848577,28.9474772 188.024684,27.4107845 188.024684,27.4107845 L187.669878,27.9597414 L195.266557,39.5264947 L196.787427,38.1830967 L196.981132,38.4053856 L191.770282,43 L184.754717,31.7038592" id="Fill-19" sketch:type="MSShapeGroup"></path>
                <path d="M180.386003,21.7032791 C180.386003,20.0330579 179.635215,19.0066649 178.655927,19.0794455 L185.00702,15 L185.00702,38.086377 L186.682011,39.7024793 L187.953046,38.6984804 L188.150943,38.9112237 L183.036202,43 L179.571969,40.0178619 L178.184644,41.1375633 L177.962264,40.9192215 L180.386003,38.9952013 L180.386003,21.7032791" id="Fill-20" sketch:type="MSShapeGroup"></path>
                <path d="M130.037489,20.9089689 C130.037489,19.3225828 129.372101,18.438087 128.294526,18.4076527 C126.739991,18.3791206 126.370985,20.4962042 126.370985,20.4962042 C126.370985,20.4962042 126.090305,18.8622646 127.503519,17.3747898 C128.298452,16.5511625 129.7784,15.3851497 132.096463,15.9234558 C134.487149,16.4845876 135.164314,18.2859157 135.164314,19.8723018 L135.164314,41.7659517 C135.164314,41.7659517 136.069163,41.8686673 136.69137,42.0037194 C137.411716,42.1444778 138.092806,42.334692 138.092806,42.334692 L138.092806,15.9348686 L138.389189,15.9348686 L138.389189,19.4975799 L143.294217,15.6666667 L146.888097,18.7652553 L148.564326,17.3576706 L148.754717,17.5802211 L147.00194,19.0391637 L147.00194,39.3996875 C146.917539,40.7292845 146.693781,42.0779029 145.400298,42.8577809 C142.514987,44.510742 139.032986,42.6009918 135.929804,42.1673035 C133.627444,41.8325266 130.013936,41.4121533 129.107124,43.4550534 C128.810741,44.1322158 128.832332,45.168883 129.87654,45.8441433 C131.970844,47.2041745 141.303941,43.5672798 144.505262,45.0091031 C147.421978,46.3272872 147.410201,48.4120344 146.962684,49.8386406 C146.203081,52.5282689 142.705378,53 142.705378,53 C142.705378,53 144.414974,52.0337121 143.9282,50.4397174 C143.680888,49.6351115 143.117565,49.4068545 141.284313,49.6046772 C137.284134,50.0459741 132.502762,51.9233879 129.289664,50.6185187 C127.633064,49.9489649 126.4652,47.9441076 126.575116,45.975391 C126.659516,43.1354936 130.037489,42.0208386 130.037489,42.0208386 L130.037489,31.5305277 C129.939349,31.1139587 128.135539,31.2185765 127.74298,31.9908459 C127.144327,33.1568587 128.488843,33.6894584 128.488843,33.6894584 C128.488843,33.6894584 127.373974,33.8549447 126.439683,32.8125711 C125.984314,32.2989929 125.034321,30.5166862 126.270883,28.8599209 C127.285649,27.4960853 128.502582,27.2583176 130.037489,27.0985377 L130.037489,20.9089689 L130.037489,20.9089689 Z M138.566038,42.9191182 C138.566038,42.9191182 139.949297,43.2884321 140.958599,42.448729 C142.08047,41.5079506 141.958362,40.1861958 141.958362,40.1861958 L141.958362,31.8533093 C141.958362,31.8533093 141.311569,31 140.277463,31 C139.245266,31 138.566038,31.8844095 138.566038,31.8844095 L138.566038,42.9191182 L138.566038,42.9191182 Z M141.962264,21.0143472 L139.672008,19 L138.566038,19.8703969 L138.566038,27.4705882 C138.566038,27.4705882 139.246047,28.3333333 140.279432,28.3333333 C141.314727,28.3333333 141.962264,27.5031086 141.962264,27.5031086 L141.962264,21.0143472 L141.962264,21.0143472 Z M141.962264,27.6686379 C141.962264,27.6686379 141.307087,28.439385 140.275612,28.439385 C139.242227,28.439385 138.566038,27.6666667 138.566038,27.6666667 L138.566038,31 C138.566038,31 139.242227,30.2292529 140.275612,30.2292529 C141.307087,30.2292529 141.962264,30.9605756 141.962264,30.9605756 L141.962264,27.6686379 L141.962264,27.6686379 Z" id="Fill-21" sketch:type="MSShapeGroup"></path>
            </g>
        </g>
    </g>
</svg>