<?xml version="1.0" encoding="UTF-8" standalone="no"?>
<svg width="174px" height="60px" viewBox="0 0 174 60" version="1.1" xmlns="http://www.w3.org/2000/svg" xmlns:xlink="http://www.w3.org/1999/xlink" xmlns:sketch="http://www.bohemiancoding.com/sketch/ns">
    <!-- Generator: Sketch 3.0.1 (7597) - http://www.bohemiancoding.com/sketch -->
    <title>theverge</title>
    <description>Created with Sketch.</description>
    <defs></defs>
    <g id="Page-1" stroke="none" stroke-width="1" fill="none" fill-rule="evenodd" sketch:type="MSPage">
        <g id="Monocolor-Original" sketch:type="MSArtboardGroup" transform="translate(-1158.000000, -189.000000)" fill="#FFFFFF">
            <g id="theverge" sketch:type="MSLayerGroup" transform="translate(1158.000000, 189.000000)">
                <path d="M141.247584,44.6068129 C136.209261,42.9903427 132.278893,38.8240303 130.917387,33.656483 C130.372291,31.5875914 130.359084,27.8843207 130.889656,25.8808213 C132.182452,20.999078 135.885953,17.0366231 140.516665,15.5806864 C142.022566,15.1072175 143.310932,15 147.494473,15 L152.625374,15 L152.625374,20.3481444 L152.625374,25.6962918 L151.487595,25.2098578 C147.917551,23.6835636 144.72064,23.4806163 142.737941,24.6544056 C140.94836,25.7138635 139.744975,28.1610583 139.950588,30.3227373 C140.250352,33.4742768 142.698106,35.6521513 145.74063,35.4744047 L147.315738,35.3823836 L147.412301,34.1924079 L147.508863,33.0024353 L145.060891,33.1455902 L142.612918,33.288745 L142.612918,29.6614102 L142.612918,26.0340723 L149.287889,26.0340723 L155.962859,26.0340723 L155.962859,32.6094446 C155.962859,36.9611448 156.082398,39.4498522 156.316335,39.9685241 C156.623217,40.6489218 156.574629,40.8545846 155.947761,41.5286561 C155.048191,42.4959734 152.069252,43.9967053 149.880948,44.5850022 C147.859991,45.1283076 142.911972,45.1408099 141.247584,44.6068251 L141.247584,44.6068129 Z" id="path3080-path" sketch:type="MSShapeGroup"></path>
                <path d="M4.22916667,44.3730401 C4.22916667,44.3078731 4.43223615,43.8585881 4.68043083,43.3746291 C5.05264281,42.6488458 5.13202125,40.8052629 5.13355583,32.8504831 L5.13536833,23.2062627 L3.04613583,23.4037269 C1.89705615,23.5123325 0.741587396,23.6852174 0.4784275,23.7879124 C0.05535375,23.9530311 0,23.4554938 0,19.4873168 L0,15 L7.25,15 L14.5,15 L14.5,29.7457627 L14.5,44.4915254 L9.36458333,44.4915254 C6.54010417,44.4915254 4.22916667,44.4382072 4.22916667,44.3730401 L4.22916667,44.3730401 Z" id="path3080-path" sketch:type="MSShapeGroup"></path>
                <path d="M15.6983132,44.2867221 C15.5892405,44.1740829 15.5,37.5384897 15.5,29.5409594 L15.5,15 L21.8955696,15 L28.2911392,15 L28.2911392,19.4751516 C28.2911392,23.5885804 28.2490623,23.9383806 27.7705696,23.802824 C27.4842563,23.7217101 26.7480222,23.5678872 26.1344937,23.4609988 L25.0189873,23.2666497 L25.0189873,24.6629874 L25.0189873,26.059322 L27.25,26.059322 L29.4810127,26.059322 L29.4810127,20.529661 L29.4810127,15 L34.2405063,15 L39,15 L39,29.7457627 L39,44.4915254 L33.8119437,44.4915254 L28.6238903,44.4915254 L29.0506176,43.6467161 C29.3665855,43.0211855 29.4778238,41.5859128 29.4791803,38.1170551 L29.4809651,33.4322034 L27.2499524,33.4322034 L25.0189397,33.4322034 L25.0189397,38.05551 C25.0189397,41.5988553 25.1249515,42.8905319 25.4727813,43.585171 L25.9266228,44.4915254 L20.9116008,44.4915254 C18.1533374,44.4915254 15.8073354,44.3993644 15.6982656,44.2867221 L15.6983132,44.2867221 Z" id="path3080-path" sketch:type="MSShapeGroup"></path>
                <path d="M39.5,44.3730524 C39.5,44.3078853 39.701669,43.8586002 39.948152,43.374641 C40.603697,42.0875074 40.619039,17.6675127 39.965312,16.0653449 L39.530615,15 L48.515309,15 L57.5,15 L57.5,19.4751535 L57.5,23.9503069 L56.825,23.7285736 C55.172084,23.1856036 53.892479,23.0014535 51.725,22.9946213 L49.4,22.9872792 L49.4,24.5618201 L49.4,26.136361 L51.95,25.9993083 L54.5,25.8622525 L54.5,29.8336936 C54.5,33.4952277 54.459032,33.7879282 53.975,33.5846147 C53.68625,33.4633277 52.53875,33.2917208 51.425,33.2032676 L49.4,33.0424405 L49.4,34.4992886 L49.4,35.9561368 L52.775,35.804962 C54.63125,35.7218142 56.45375,35.5525297 56.825,35.4287728 L57.5,35.2037616 L57.5,39.8476435 L57.5,44.4915254 L48.5,44.4915254 C43.55,44.4915254 39.5,44.4382072 39.5,44.3730401 L39.5,44.3730524 Z" id="path3080-path" sketch:type="MSShapeGroup"></path>
                <path d="M68.7770509,30.6194204 C65.5652749,22.9897299 62.6140311,16.3541193 62.2187281,15.8736254 L61.5,15 L71.8872069,15 C77.6001692,15 82.2744108,15.0964876 82.2744108,15.2144142 C82.2744108,15.3323438 81.6448162,17.1237442 80.8753126,19.1953039 L79.4762143,22.9617763 L77.30815,23.0506067 L75.1400887,23.1394341 L76.5003155,26.9405252 L77.8605423,30.7416163 L80.7394127,22.8708082 L83.6182861,15 L95.559143,15 L107.5,15 L107.5,19.6400886 C107.5,23.934795 107.460882,24.2644789 106.974467,24.069283 C106.010675,23.6825217 103.16746,23.2965866 101.268679,23.2947867 L99.3917749,23.2929438 L99.3917749,24.7136282 L99.3917749,26.1343127 L101.944364,25.9972846 L104.496954,25.8602534 L104.496954,29.8309826 C104.496954,33.4918605 104.455944,33.7845084 103.971421,33.5812314 C103.682377,33.4599662 102.533712,33.28839 101.418831,33.1999527 L99.3917749,33.0391543 L99.3917749,34.6161651 L99.3917749,36.1931789 L101.906607,36.1931789 C103.374376,36.1931789 104.953014,36.0013555 105.698172,35.7324562 C106.400375,35.4790587 107.093051,35.2717335 107.237453,35.2717335 C107.381854,35.2717335 107.5,37.3449856 107.5,39.8789604 L107.5,44.4861872 L98.490861,44.4861872 C93.5358346,44.4861872 89.481722,44.3756137 89.481722,44.2404684 C89.481722,44.1053231 89.6506434,43.8221629 89.8571028,43.6112257 C90.1388066,43.3234153 90.2550455,40.6469574 90.3228903,32.886305 C90.3726118,27.198536 90.3421398,22.6176994 90.2551356,22.7066711 C90.1681463,22.7956428 88.0833295,27.6978765 85.6222099,33.6005234 L81.1474486,44.332613 L77.8820442,44.4120692 L74.6166427,44.4915254 L68.7770509,30.6193559 L68.7770509,30.6194204 Z" id="path3080-path" sketch:type="MSShapeGroup"></path>
                <path d="M108.003959,43.5863625 C108.394171,42.8163386 108.462653,40.719508 108.462653,29.5418499 C108.462653,17.9907095 108.404474,16.3177347 107.981326,15.7012486 L107.5,15 L115.121729,15.0960865 L122.743459,15.19217 L124.653223,16.2487171 C126.88402,17.4828703 128.399677,19.3182709 129.059029,21.5839701 C129.892755,24.4488703 129.438875,27.7883004 127.906875,30.0609609 L127.190435,31.1237697 L128.340708,31.9740707 C129.599126,32.9043145 131.126081,35.3547776 131.648073,37.2817364 C131.830913,37.9566954 132.149913,39.6134128 132.356967,40.9633308 C132.56402,42.3132487 132.833942,43.6593317 132.956796,43.9546262 C133.164824,44.4546512 132.804064,44.4915254 127.70416,44.4915254 C122.600347,44.4915254 122.244033,44.4550347 122.461784,43.9546262 C123.689732,41.1326995 121.977075,37.4269814 118.891688,36.2299202 L118.049066,35.9030038 L118.146708,39.6603654 C118.200413,41.7269149 118.357904,43.6593317 118.496693,43.9546262 C118.73232,44.4559612 118.377976,44.4915254 113.147151,44.4915254 L107.545266,44.4915254 L108.003959,43.5863625 L108.003959,43.5863625 Z M120.453827,27.0304672 C121.400822,25.8682631 121.082015,24.2801377 119.763329,23.5907956 C118.133438,22.7387726 118,22.8972983 118,25.6856236 L118,28.220339 L118.966659,27.9448012 C119.498321,27.7932571 120.167547,27.3818071 120.453827,27.0304672 L120.453827,27.0304672 Z" id="path3080-path" sketch:type="MSShapeGroup"></path>
                <path d="M156.457313,43.585171 C157.118657,42.2744416 157.140065,17.1397976 156.480932,15.8448093 L156.050941,15 L165.025466,15 L174,15 L174,19.4094469 L174,23.8188969 L172.435969,23.403091 C171.575735,23.1743996 169.754794,22.9872881 168.389424,22.9872881 L165.906928,22.9872881 L165.906928,24.5659173 L165.906928,26.1445433 L168.604618,25.9868988 L171.302309,25.8292574 L171.302309,29.8171998 C171.302309,33.4909898 171.260975,33.7884856 170.777758,33.593691 C170.489255,33.477393 169.275294,33.3044068 168.080067,33.2092782 L165.906928,33.0363165 L165.906928,34.49623 L165.906928,35.9561404 L169.279041,35.8049656 C171.133704,35.7218179 172.954645,35.5525335 173.325577,35.4287766 L174,35.2037655 L174,39.8476454 L174,44.4915254 L165,44.4915254 L156,44.4915254 L156.457313,43.585171 L156.457313,43.585171 Z" id="path3080-path" sketch:type="MSShapeGroup"></path>
            </g>
        </g>
    </g>
</svg>