<?xml version="1.0" encoding="UTF-8" standalone="no"?>
<svg width="162px" height="60px" viewBox="0 0 162 60" version="1.1" xmlns="http://www.w3.org/2000/svg" xmlns:xlink="http://www.w3.org/1999/xlink" xmlns:sketch="http://www.bohemiancoding.com/sketch/ns">
    <!-- Generator: Sketch 3.0.1 (7597) - http://www.bohemiancoding.com/sketch -->
    <title>tumblr</title>
    <description>Created with Sketch.</description>
    <defs></defs>
    <g id="Page-1" stroke="none" stroke-width="1" fill="none" fill-rule="evenodd" sketch:type="MSPage">
        <g id="Monocolor-Original" sketch:type="MSArtboardGroup" transform="translate(-631.000000, -341.000000)" fill="#FFFFFF">
            <g id="tumblr" sketch:type="MSLayerGroup" transform="translate(631.000000, 341.000000)">
                <path d="M157.499639,35 C155.014042,35 153,37.0155162 153,39.5008605 C153,41.984238 155.014042,44 157.499639,44 C159.985718,44 162,41.984238 162,39.5008605 C162,37.0155162 159.985718,35 157.499639,35 L157.499639,35 Z M132.163638,37.5780661 L132.171075,10 L129.275478,10 C129.275478,10 124.464869,11.743122 121,12.1138406 L121,17.3231678 L123.187596,17.3231678 C123.890725,17.3231678 124.186131,17.6240073 124.196388,18.2822061 L124.196388,37.578323 C124.196388,38.2581021 123.797384,38.6308758 123.151953,38.6730088 C122.599348,38.7097466 121.361052,38.789902 121.361052,38.789902 L121.361052,44 L135,44 L135,38.789902 C135,38.789902 133.759909,38.7097466 133.208587,38.6730088 C132.561873,38.6306189 132.163638,38.2578451 132.163638,37.5780661 L132.163638,37.5780661 Z M159,23.8050807 C158.73967,17.9689461 151.04877,17.700372 147.028847,21.6428136 L146.295053,19.3830239 L137,19.3830239 L137,24.7315454 L138.949084,24.7287075 C139.640201,24.7287075 139.895259,25.0300472 139.904547,25.6907757 L139.904547,37.5511242 C139.904547,38.2337824 139.513425,38.6081351 138.881303,38.6504465 C138.340058,38.6873399 137.251041,38.7668028 137.251041,38.7668028 L137.251041,44 L150.338575,44 L150.338575,38.7668028 C150.338575,38.7668028 149.256085,38.6870819 148.716597,38.6504465 C148.083722,38.6081351 147.691847,38.2340404 147.691847,37.5511242 L147.688834,29.5096371 C147.688834,28.0024227 148.024979,25.4872166 150.613214,24.8437738 C150.932287,27.3589799 153.296594,28.1102651 154.45063,28.1102651 C157.363462,28.1097492 159,25.8685352 159,23.8050807 L159,23.8050807 Z M109.385173,19.0706122 C107.43488,19.158627 105.377625,19.9271031 103.883348,21.2643685 L103.883348,10 L101.122554,10 C101.122554,10 96.6085966,11.6514223 93.1138803,12.0930225 L93,17.2510461 L95.2089315,17.254353 C95.8870255,17.254353 96.1790135,17.551721 96.1881536,18.2042006 L96.1881536,43.6679515 L102.500727,43.6613376 L103.403618,41.5718764 C103.5963,41.683294 106.49296,44.4867944 111.118327,43.9258908 C116.941537,43.2189742 120,38.471008 120,31.2672763 C120,27.4879817 118.874537,18.6435115 109.385173,19.0706122 L109.385173,19.0706122 Z M108.158208,37.9852793 C107.129085,38.0668009 105.224662,37.8808298 104,35.5704576 L104,32.1857838 L104.000948,32.1837458 L104,32.1837458 L104,28.2702009 C104,26.5783735 105.45433,25.0931524 107.704086,25.0034787 C109.98252,24.9127859 112,26.5844876 112,31.3061151 C112,37.6760069 109.400646,37.8861797 108.158208,37.9852793 L108.158208,37.9852793 Z M91.3405166,37.5365624 C91.3405166,37.5365624 91.3410201,31.4485996 91.3410201,30.0570431 C91.3410201,27.3915083 91.3098031,24.6368207 89.5908565,22.3881068 C88.0164141,20.3303603 85.4045114,18.8212257 81.438699,19.0171031 C78.804894,19.1473435 75.9956196,20.4037498 74.4445899,22.5553003 L74.200141,22.8721152 L74.0516087,22.6886416 C72.4572781,20.3251921 69.9113338,18.8214841 65.9460249,19.0171031 C63.3114647,19.1473435 60.5021902,20.4037498 58.9511606,22.5553003 L58.7182921,19.3429625 L49,19.3429625 L49,24.7011657 L51.236544,24.7350178 C51.928352,24.7350178 52.2201299,25.0371032 52.2296964,25.6996753 L52.2299481,36.1853184 L52.2299481,37.5365624 C52.2299481,38.2205829 51.8379739,38.5957992 51.2048235,38.6384374 C50.6620513,38.6751322 49.5636675,38.7549819 49.5636675,38.7549819 L49.5636675,43.9953486 L62.7049997,44 L62.7049997,38.7549819 C62.7049997,38.7549819 61.6695534,38.6797836 61.063592,38.6384374 C60.4299381,38.5939903 60.0389708,38.2208413 60.0389708,37.5365624 C60.0389708,37.5365624 60.0495443,30.8439121 60.0495443,29.5035215 C60.0495443,28.1651982 61.1287951,25.418263 64.5543528,25.418263 C67.3178088,25.418263 67.8839938,27.1470491 67.8839938,29.1590563 C67.8839938,31.1702883 67.8870148,37.5375961 67.8870148,37.5375961 C67.8870148,38.2216165 67.4957958,38.5957992 66.8626454,38.6384374 C66.3201249,38.6759074 65.2212376,38.7565324 65.2212376,38.7565324 L65.2212376,43.9953486 L78.3487236,43.9953486 L78.3487236,38.7549819 C78.3487236,38.7549819 77.3137808,38.6797836 76.7070641,38.6384374 C76.0739137,38.5939903 75.6882332,38.2208413 75.6882332,37.5365624 L75.6685967,37.5365624 C75.6685967,37.5365624 75.6799255,30.8439121 75.6799255,29.5035215 C75.6799255,28.1651982 76.6421127,25.418263 80.0684256,25.418263 C82.8316298,25.418263 83.5234379,27.1470491 83.5234379,29.1590563 L83.5234379,36.18506 L83.5219274,37.5373377 C83.5219274,38.2213581 83.1294497,38.5955408 82.4970545,38.638179 C81.9540305,38.675649 80.855395,38.756274 80.855395,38.756274 L80.855395,43.9950901 L94,43.9950901 L94,38.7549819 C94,38.7549819 92.9645536,38.6797836 92.3590957,38.6384374 C91.7254418,38.5939903 91.3405166,38.2205829 91.3405166,37.5365624 L91.3405166,37.5365624 Z M44.7099398,37.2295711 L44.7099398,19 L33.7890436,19 L33.7890436,24.3525706 L35.8930695,24.353087 C36.5858523,24.353087 36.8766097,24.6552004 36.885924,25.3170094 L36.8750992,33.6326147 C36.8750992,34.4478044 36.3021436,37.5089614 32.3234252,37.5856517 C29.6122074,37.6391025 29.0417691,35.9989111 29.0417691,33.8479673 L29.0417691,19 L21,19 L21,34.2724753 C21,38.136944 22.720629,44.2163942 30.7488042,43.9940697 C33.3845007,43.9197034 36.4040975,42.5599351 37.9731802,40.565987 L38.0388838,43.6369563 L47,43.6369563 L47,38.4005831 C47,38.4005831 46.2752464,38.3427426 45.7324994,38.3055594 C45.0991267,38.2632119 44.7099398,37.9138449 44.7099398,37.2295711 L44.7099398,37.2295711 Z M14.7412717,37.9291154 C12.0948583,37.9983707 11.5830519,36.0729711 11.5603327,34.6748793 L11.5603327,24.9758249 L17.7277243,24.9758249 L17.7277243,19.3546865 L11.5850492,19.3546865 L11.5850492,11 L6.74211266,11 C6.66272026,11 6.52390839,11.0700192 6.50443478,11.2469767 C6.22031983,13.819608 5.01345545,18.3359713 0,20.1399196 L0,24.9758249 L3.81632787,24.9758249 L3.81632787,35.1856373 C3.81632787,38.8773022 6.07376845,44.1211009 13.2737606,43.9978672 C15.7034677,43.9568742 18.4025597,42.9407052 19,42.0650837 L17.409905,37.3590321 C16.794489,37.6505664 15.619831,37.9054362 14.7412717,37.9291154 L14.7412717,37.9291154 Z" id="Shape" sketch:type="MSShapeGroup"></path>
            </g>
        </g>
    </g>
</svg>