<?xml version="1.0" encoding="utf-8"?>
<!-- Generator: Adobe Illustrator 18.0.0, SVG Export Plug-In . SVG Version: 6.00 Build 0)  -->
<!DOCTYPE svg PUBLIC "-//W3C//DTD SVG 1.1//EN" "http://www.w3.org/Graphics/SVG/1.1/DTD/svg11.dtd">
<svg version="1.1" id="Layer_1" xmlns="http://www.w3.org/2000/svg" xmlns:xlink="http://www.w3.org/1999/xlink" x="0px" y="0px"
	 viewBox="0 0 612 369.3" enable-background="new 0 0 612 369.3" xml:space="preserve">
<path fill="#547DBF" d="M126,273.8c0,19.9-16.1,36-36,36c-19.9,0-36-16.1-36-36V95.5c0-19.9,16.1-36,36-36c19.9,0,36,16.1,36,36
	V273.8z"/>
<path fill="#EA4335" d="M270,237.4c0,19.9-16.1,36-36,36c-19.9,0-36-16.1-36-36V131.9c0-19.9,16.1-36,36-36c19.9,0,36,16.1,36,36
	V237.4z"/>
<path fill="#F9BC15" d="M414,304.9c0,19.9-16.1,36-36,36c-19.9,0-36-16.1-36-36V64.4c0-19.9,16.1-36,36-36c19.9,0,36,16.1,36,36
	V304.9z"/>
<path fill="#33A851" d="M558,261.5c0,19.9-16.1,36-36,36c-19.9,0-36-16.1-36-36V107.8c0-19.9,16.1-36,36-36c19.9,0,36,16.1,36,36
	V261.5z"/>
</svg>
